%TF.GenerationSoftware,Altium Limited,Altium Designer,24.7.2 (38)*%
G04 Layer_Color=65535*
%FSLAX43Y43*%
%MOMM*%
%TF.SameCoordinates,179ED5A7-1FD7-47B0-8EB6-D2B1FD869DB5*%
%TF.FilePolarity,Positive*%
%TF.FileFunction,Legend,Top*%
%TF.Part,Single*%
G01*
G75*
%TA.AperFunction,NonConductor*%
%ADD21C,0.254*%
D21*
X31760Y24378D02*
X31507Y24632D01*
X30999D01*
X30745Y24378D01*
Y23362D01*
X30999Y23108D01*
X31507D01*
X31760Y23362D01*
X33284Y24378D02*
X33030Y24632D01*
X32522D01*
X32268Y24378D01*
Y24124D01*
X32522Y23870D01*
X33030D01*
X33284Y23616D01*
Y23362D01*
X33030Y23108D01*
X32522D01*
X32268Y23362D01*
X33792Y24378D02*
X34046Y24632D01*
X34554D01*
X34807Y24378D01*
Y24124D01*
X34554Y23870D01*
X34807Y23616D01*
Y23362D01*
X34554Y23108D01*
X34046D01*
X33792Y23362D01*
Y23616D01*
X34046Y23870D01*
X33792Y24124D01*
Y24378D01*
X34046Y23870D02*
X34554D01*
X31760Y45378D02*
X31507Y45632D01*
X30999D01*
X30745Y45378D01*
Y44362D01*
X30999Y44108D01*
X31507D01*
X31760Y44362D01*
X33284Y45378D02*
X33030Y45632D01*
X32522D01*
X32268Y45378D01*
Y45124D01*
X32522Y44870D01*
X33030D01*
X33284Y44616D01*
Y44362D01*
X33030Y44108D01*
X32522D01*
X32268Y44362D01*
X33792Y45632D02*
X34807D01*
Y45378D01*
X33792Y44362D01*
Y44108D01*
X52760Y24378D02*
X52507Y24632D01*
X51999D01*
X51745Y24378D01*
Y23362D01*
X51999Y23108D01*
X52507D01*
X52760Y23362D01*
X54284Y24378D02*
X54030Y24632D01*
X53522D01*
X53268Y24378D01*
Y24124D01*
X53522Y23870D01*
X54030D01*
X54284Y23616D01*
Y23362D01*
X54030Y23108D01*
X53522D01*
X53268Y23362D01*
X55807Y24632D02*
X55300Y24378D01*
X54792Y23870D01*
Y23362D01*
X55046Y23108D01*
X55554D01*
X55807Y23362D01*
Y23616D01*
X55554Y23870D01*
X54792D01*
X52760Y45378D02*
X52507Y45632D01*
X51999D01*
X51745Y45378D01*
Y44362D01*
X51999Y44108D01*
X52507D01*
X52760Y44362D01*
X54284Y45378D02*
X54030Y45632D01*
X53522D01*
X53268Y45378D01*
Y45124D01*
X53522Y44870D01*
X54030D01*
X54284Y44616D01*
Y44362D01*
X54030Y44108D01*
X53522D01*
X53268Y44362D01*
X55807Y45632D02*
X54792D01*
Y44870D01*
X55300Y45124D01*
X55554D01*
X55807Y44870D01*
Y44362D01*
X55554Y44108D01*
X55046D01*
X54792Y44362D01*
X52760Y66378D02*
X52507Y66632D01*
X51999D01*
X51745Y66378D01*
Y65362D01*
X51999Y65108D01*
X52507D01*
X52760Y65362D01*
X54284Y66378D02*
X54030Y66632D01*
X53522D01*
X53268Y66378D01*
Y66124D01*
X53522Y65870D01*
X54030D01*
X54284Y65616D01*
Y65362D01*
X54030Y65108D01*
X53522D01*
X53268Y65362D01*
X55554Y65108D02*
Y66632D01*
X54792Y65870D01*
X55807D01*
X10788Y66378D02*
X10535Y66632D01*
X10027D01*
X9773Y66378D01*
Y65362D01*
X10027Y65108D01*
X10535D01*
X10788Y65362D01*
X12312Y66378D02*
X12058Y66632D01*
X11550D01*
X11296Y66378D01*
Y66124D01*
X11550Y65870D01*
X12058D01*
X12312Y65616D01*
Y65362D01*
X12058Y65108D01*
X11550D01*
X11296Y65362D01*
X12820Y66378D02*
X13074Y66632D01*
X13582D01*
X13835Y66378D01*
Y66124D01*
X13582Y65870D01*
X13328D01*
X13582D01*
X13835Y65616D01*
Y65362D01*
X13582Y65108D01*
X13074D01*
X12820Y65362D01*
X10760Y45378D02*
X10507Y45632D01*
X9999D01*
X9745Y45378D01*
Y44362D01*
X9999Y44108D01*
X10507D01*
X10760Y44362D01*
X12284Y45378D02*
X12030Y45632D01*
X11522D01*
X11268Y45378D01*
Y45124D01*
X11522Y44870D01*
X12030D01*
X12284Y44616D01*
Y44362D01*
X12030Y44108D01*
X11522D01*
X11268Y44362D01*
X13807Y44108D02*
X12792D01*
X13807Y45124D01*
Y45378D01*
X13554Y45632D01*
X13046D01*
X12792Y45378D01*
X10760Y24378D02*
X10507Y24632D01*
X9999D01*
X9745Y24378D01*
Y23362D01*
X9999Y23108D01*
X10507D01*
X10760Y23362D01*
X12284Y24378D02*
X12030Y24632D01*
X11522D01*
X11268Y24378D01*
Y24124D01*
X11522Y23870D01*
X12030D01*
X12284Y23616D01*
Y23362D01*
X12030Y23108D01*
X11522D01*
X11268Y23362D01*
X12792Y23108D02*
X13300D01*
X13046D01*
Y24632D01*
X12792Y24378D01*
%TF.MD5,6fc2db57b09fa6f221cac5cb009c6646*%
M02*
