%TF.GenerationSoftware,Altium Limited,Altium Designer,24.7.2 (38)*%
G04 Layer_Physical_Order=2*
G04 Layer_Color=16711680*
%FSLAX43Y43*%
%MOMM*%
%TF.SameCoordinates,179ED5A7-1FD7-47B0-8EB6-D2B1FD869DB5*%
%TF.FilePolarity,Positive*%
%TF.FileFunction,Copper,L2,Bot,Signal*%
%TF.Part,Single*%
G01*
G75*
%TA.AperFunction,Conductor*%
%ADD11C,0.500*%
%TA.AperFunction,ViaPad*%
%ADD12C,1.270*%
%TA.AperFunction,SMDPad,CuDef*%
%ADD13R,1.800X2.600*%
%ADD14R,0.600X2.200*%
%ADD15R,0.508X1.676*%
G04:AMPARAMS|DCode=16|XSize=1mm|YSize=1.05mm|CornerRadius=0.25mm|HoleSize=0mm|Usage=FLASHONLY|Rotation=180.000|XOffset=0mm|YOffset=0mm|HoleType=Round|Shape=RoundedRectangle|*
%AMROUNDEDRECTD16*
21,1,1.000,0.550,0,0,180.0*
21,1,0.500,1.050,0,0,180.0*
1,1,0.500,-0.250,0.275*
1,1,0.500,0.250,0.275*
1,1,0.500,0.250,-0.275*
1,1,0.500,-0.250,-0.275*
%
%ADD16ROUNDEDRECTD16*%
G04:AMPARAMS|DCode=17|XSize=1.05mm|YSize=1.1mm|CornerRadius=0.263mm|HoleSize=0mm|Usage=FLASHONLY|Rotation=90.000|XOffset=0mm|YOffset=0mm|HoleType=Round|Shape=RoundedRectangle|*
%AMROUNDEDRECTD17*
21,1,1.050,0.575,0,0,90.0*
21,1,0.525,1.100,0,0,90.0*
1,1,0.525,0.288,0.263*
1,1,0.525,0.288,-0.263*
1,1,0.525,-0.288,-0.263*
1,1,0.525,-0.288,0.263*
%
%ADD17ROUNDEDRECTD17*%
%TA.AperFunction,FiducialPad,Global*%
%ADD18C,1.500*%
%TA.AperFunction,ComponentPad*%
%ADD19C,7.400*%
D11*
X39107Y40216D02*
X40954Y38369D01*
Y36686D02*
Y38369D01*
X39107Y40216D02*
Y41900D01*
X37837Y40068D02*
X39424Y38481D01*
Y36686D02*
Y38481D01*
X37837Y40068D02*
Y41900D01*
X30217Y39993D02*
Y41900D01*
X28997Y38773D02*
X30217Y39993D01*
X28997Y36716D02*
Y38773D01*
X30854Y36716D02*
Y38908D01*
X31487Y39541D02*
Y41900D01*
X30854Y38908D02*
X31487Y39541D01*
X35951Y36711D02*
Y38887D01*
X35297Y39541D02*
X35951Y38887D01*
X35297Y39541D02*
Y41900D01*
X34027Y36933D02*
Y41900D01*
Y36933D02*
X34273Y36686D01*
X36567Y39904D02*
X37837Y38634D01*
Y36716D02*
Y38634D01*
X41997Y36004D02*
Y45341D01*
X40954Y34961D02*
X41997Y36004D01*
X40997Y49555D02*
Y53841D01*
X39282Y47841D02*
X40997Y49555D01*
X35150Y47841D02*
X39282D01*
X42997Y49841D02*
Y53841D01*
X39443Y46288D02*
X42997Y49841D01*
X32770Y46288D02*
X39443D01*
X39782Y44841D02*
X44997Y50055D01*
X29764Y44841D02*
X39782D01*
X44997Y50055D02*
Y55528D01*
X35497Y61341D02*
X42997Y53841D01*
X31487Y55716D02*
Y57071D01*
X27097Y58841D02*
X29716D01*
X31487Y57071D01*
Y55716D02*
X35297D01*
X32497Y60701D02*
Y66991D01*
Y60701D02*
X36567Y56631D01*
Y55261D02*
Y56631D01*
X29764Y44841D02*
Y47105D01*
X28897Y47973D02*
X29764Y47105D01*
X28521Y44841D02*
X29764D01*
X28897Y47973D02*
Y50841D01*
X27677Y41900D02*
Y43997D01*
X28521Y44841D01*
X28897Y50841D02*
Y53966D01*
X30217Y48841D02*
X32770Y46288D01*
X28897Y53966D02*
Y56841D01*
X39497Y61028D02*
X44997Y55528D01*
X34027Y48964D02*
Y50841D01*
Y48964D02*
X35150Y47841D01*
X30217Y48841D02*
Y50841D01*
X39497Y61028D02*
Y66991D01*
X38497D02*
X39497D01*
X37497D02*
X38497D01*
X34497Y68548D02*
X34789Y68841D01*
X37154D01*
X34497Y66991D02*
Y68548D01*
X37154Y68841D02*
X37447Y68548D01*
Y67041D02*
Y68548D01*
Y67041D02*
X37497Y66991D01*
X33497Y61341D02*
Y66991D01*
Y61341D02*
X40997Y53841D01*
X36547Y65696D02*
X36567Y65676D01*
Y64291D02*
Y65676D01*
X36497Y66991D02*
X36547Y66941D01*
Y65696D02*
Y66941D01*
X35497Y61341D02*
Y66991D01*
X27097Y60941D02*
X30447Y64291D01*
X27097Y58841D02*
Y60941D01*
X30447Y64291D02*
Y66941D01*
X30497Y66991D01*
X31497D01*
X27097Y53966D02*
Y56841D01*
X35297Y53991D02*
X36567Y55261D01*
X35297Y53966D02*
Y53991D01*
X40954Y34936D02*
Y34961D01*
X39424Y34911D02*
X40960Y33375D01*
X48363D01*
X49788Y34800D01*
X49997D01*
X39424Y34911D02*
Y34936D01*
X37837Y30209D02*
X40997Y27049D01*
X37837Y30209D02*
Y34966D01*
X35951Y32841D02*
Y34936D01*
X34273Y27564D02*
X37997Y23841D01*
X34273Y27564D02*
Y34936D01*
X32757Y27809D02*
Y34936D01*
X31997Y26841D02*
Y27049D01*
X32757Y27809D01*
X28997Y34936D02*
X29026Y34907D01*
Y33375D02*
Y34907D01*
Y33375D02*
X29055Y33346D01*
X30424Y31841D02*
X30717Y32134D01*
X26997Y31841D02*
X30424D01*
X25997Y32841D02*
X26997Y31841D01*
X30717Y32134D02*
Y34800D01*
X25997Y32841D02*
Y34841D01*
X30717Y34800D02*
X30854Y34936D01*
X31487Y53966D02*
X31574Y54053D01*
X33324D01*
X35297Y50841D02*
Y53966D01*
X31487Y50841D02*
Y53966D01*
X27097Y56841D02*
Y58841D01*
Y52841D02*
Y53966D01*
X27677Y50841D02*
Y52261D01*
X27097Y52841D02*
X27677Y52261D01*
X36567Y39904D02*
Y41900D01*
X32757Y36716D02*
Y41900D01*
D12*
X41997Y45341D02*
D03*
X36567Y64291D02*
D03*
X35951Y32841D02*
D03*
X31997Y26841D02*
D03*
X37997Y23841D02*
D03*
X40997Y27049D02*
D03*
X49997Y34800D02*
D03*
X29055Y33346D02*
D03*
X25997Y34841D02*
D03*
X33324Y54053D02*
D03*
D13*
X42097Y69391D02*
D03*
X27897D02*
D03*
D14*
X37497Y66991D02*
D03*
X34497D02*
D03*
X30497D02*
D03*
X31497D02*
D03*
X32497D02*
D03*
X33497D02*
D03*
X35497D02*
D03*
X36497D02*
D03*
X38497D02*
D03*
X39497D02*
D03*
D15*
X39107Y50841D02*
D03*
X37837D02*
D03*
X36567D02*
D03*
X35297D02*
D03*
X34027D02*
D03*
X32757D02*
D03*
X31487D02*
D03*
X30217D02*
D03*
X28947D02*
D03*
X27677D02*
D03*
Y41900D02*
D03*
X28947D02*
D03*
X30217D02*
D03*
X31487D02*
D03*
X32757D02*
D03*
X34027D02*
D03*
X35297D02*
D03*
X36567D02*
D03*
X37837D02*
D03*
X39107D02*
D03*
D16*
X30854Y36686D02*
D03*
Y34936D02*
D03*
X34273D02*
D03*
Y36686D02*
D03*
X40954Y34936D02*
D03*
Y36686D02*
D03*
X35951Y34936D02*
D03*
Y36686D02*
D03*
X32757Y34936D02*
D03*
Y36686D02*
D03*
X37837Y34966D02*
D03*
Y36716D02*
D03*
X28997Y34936D02*
D03*
Y36686D02*
D03*
X39424Y34936D02*
D03*
Y36686D02*
D03*
X35297Y55716D02*
D03*
Y53966D02*
D03*
X31487Y55716D02*
D03*
Y53966D02*
D03*
D17*
X28897Y56841D02*
D03*
X27097D02*
D03*
X27073Y55528D02*
D03*
X28873D02*
D03*
X27097Y53966D02*
D03*
X28897D02*
D03*
D18*
X55997Y69341D02*
D03*
X5997Y19341D02*
D03*
X55997D02*
D03*
D19*
X70000Y5000D02*
D03*
X4831D02*
D03*
%TF.MD5,6177123463cb1e7a425d7bbe7b6029ad*%
M02*
