%TF.GenerationSoftware,Altium Limited,Altium Designer,24.7.2 (38)*%
G04 Layer_Physical_Order=1*
G04 Layer_Color=255*
%FSLAX43Y43*%
%MOMM*%
%TF.SameCoordinates,179ED5A7-1FD7-47B0-8EB6-D2B1FD869DB5*%
%TF.FilePolarity,Positive*%
%TF.FileFunction,Copper,L1,Top,Signal*%
%TF.Part,Single*%
G01*
G75*
%TA.AperFunction,SMDPad,CuDef*%
%ADD10C,0.100*%
%TA.AperFunction,Conductor*%
%ADD11C,0.500*%
%TA.AperFunction,ViaPad*%
%ADD12C,1.270*%
G36*
X66497Y49341D02*
X51497D01*
Y64341D01*
X66497D01*
Y49341D01*
D02*
G37*
G36*
X24525D02*
X9525D01*
Y64341D01*
X24525D01*
Y49341D01*
D02*
G37*
G36*
X66497Y28341D02*
X51497D01*
Y43341D01*
X66497D01*
Y28341D01*
D02*
G37*
G36*
X45497D02*
X30497D01*
Y43341D01*
X45497D01*
Y28341D01*
D02*
G37*
G36*
X24497D02*
X9497D01*
Y43341D01*
X24497D01*
Y28341D01*
D02*
G37*
G36*
X66497Y7341D02*
X51497D01*
Y22341D01*
X66497D01*
Y7341D01*
D02*
G37*
G36*
X45497D02*
X30497D01*
Y22341D01*
X45497D01*
Y7341D01*
D02*
G37*
G36*
X24497D02*
X9497D01*
Y22341D01*
X24497D01*
Y7341D01*
D02*
G37*
D10*
X37997Y14841D02*
D03*
Y35841D02*
D03*
X17025Y56841D02*
D03*
X16997Y35841D02*
D03*
Y14841D02*
D03*
X58997Y56841D02*
D03*
Y14841D02*
D03*
Y35841D02*
D03*
D11*
X43497Y46841D02*
X57997D01*
X41997Y45341D02*
X43497Y46841D01*
X33360Y54089D02*
Y58205D01*
X36567Y61411D02*
Y64291D01*
X33360Y58205D02*
X36567Y61411D01*
X33324Y54053D02*
X33360Y54089D01*
X49997Y34841D02*
X51997D01*
X29997Y24841D02*
X31997Y26841D01*
X57997Y46841D02*
X58997Y47841D01*
Y49841D01*
X40997Y26841D02*
X42997Y24841D01*
X57997D01*
X58997Y20841D02*
Y23841D01*
X57997Y24841D02*
X58997Y23841D01*
X37997Y19841D02*
Y23841D01*
X29055Y33346D02*
Y42782D01*
X24997Y46841D02*
X29055Y42782D01*
X17997Y24841D02*
X29997D01*
X16997Y23841D02*
X17997Y24841D01*
X16997Y20841D02*
Y23841D01*
X22997Y34841D02*
X25997D01*
X18025Y46841D02*
X24997D01*
X16997Y47869D02*
X18025Y46841D01*
X16997Y47869D02*
Y53841D01*
D12*
X41997Y45341D02*
D03*
X36567Y64291D02*
D03*
X35951Y32841D02*
D03*
X31997Y26841D02*
D03*
X37997Y23841D02*
D03*
X40997Y27049D02*
D03*
X49997Y34800D02*
D03*
X29055Y33346D02*
D03*
X25997Y34841D02*
D03*
X33324Y54053D02*
D03*
%TF.MD5,b5ea380ce7148b13ff313c9dc4132976*%
M02*
