M48
;Layer_Color=9474304
;FILE_FORMAT=4:3
METRIC,LZ
;TYPE=PLATED
T01F00S00C0.700
T03F00S00C1.600
;TYPE=NON_PLATED
T04F00S00C4.400
%
T01
X0051966Y-0056521
Y-0055251
Y-0053981
Y-0052711
Y-0051441
Y-0050171
Y-0048901
Y-0047631
Y-0046361
Y-0045091
Y-0043821
Y-0042551
Y-0041281
Y-0040011
Y-0038741
Y-0037471
Y-0036201
Y-0034931
Y-0033661
Y-0032391
Y-0031121
Y-0029851
Y-0028581
Y-0027311
Y-0026041
Y-0024771
Y-0023501
Y-0022231
T03
X0050016Y-0075576
Y-0003176
T04
X0006Y-0005
X0064
M30
