%TF.GenerationSoftware,Altium Limited,Altium Designer,24.7.2 (38)*%
G04 Layer_Color=2752767*
%FSLAX43Y43*%
%MOMM*%
%TF.SameCoordinates,6EE5CD54-FE70-432D-B01E-CA14D31D91FF*%
%TF.FilePolarity,Positive*%
%TF.FileFunction,Drawing*%
%TF.Part,Single*%
G01*
G75*
%TA.AperFunction,NonConductor*%
%ADD33C,0.127*%
%ADD43C,0.169*%
D33*
X51458Y-57029D02*
Y-56013D01*
X52474D01*
Y-57029D01*
X51458D01*
Y-55759D02*
Y-54743D01*
X52474D01*
Y-55759D01*
X51458D01*
Y-54489D02*
Y-53473D01*
X52474D01*
Y-54489D01*
X51458D01*
Y-53219D02*
Y-52203D01*
X52474D01*
Y-53219D01*
X51458D01*
Y-51949D02*
Y-50933D01*
X52474D01*
Y-51949D01*
X51458D01*
Y-50679D02*
Y-49663D01*
X52474D01*
Y-50679D01*
X51458D01*
Y-49409D02*
Y-48393D01*
X52474D01*
Y-49409D01*
X51458D01*
Y-48139D02*
Y-47123D01*
X52474D01*
Y-48139D01*
X51458D01*
Y-46869D02*
Y-45853D01*
X52474D01*
Y-46869D01*
X51458D01*
Y-45599D02*
Y-44583D01*
X52474D01*
Y-45599D01*
X51458D01*
Y-44329D02*
Y-43313D01*
X52474D01*
Y-44329D01*
X51458D01*
Y-43059D02*
Y-42043D01*
X52474D01*
Y-43059D01*
X51458D01*
Y-41789D02*
Y-40773D01*
X52474D01*
Y-41789D01*
X51458D01*
Y-40519D02*
Y-39503D01*
X52474D01*
Y-40519D01*
X51458D01*
Y-39249D02*
Y-38233D01*
X52474D01*
Y-39249D01*
X51458D01*
Y-37979D02*
Y-36963D01*
X52474D01*
Y-37979D01*
X51458D01*
Y-36709D02*
Y-35693D01*
X52474D01*
Y-36709D01*
X51458D01*
Y-35439D02*
Y-34423D01*
X52474D01*
Y-35439D01*
X51458D01*
Y-34169D02*
Y-33153D01*
X52474D01*
Y-34169D01*
X51458D01*
Y-32899D02*
Y-31883D01*
X52474D01*
Y-32899D01*
X51458D01*
Y-31629D02*
Y-30613D01*
X52474D01*
Y-31629D01*
X51458D01*
Y-30359D02*
Y-29343D01*
X52474D01*
Y-30359D01*
X51458D01*
Y-29089D02*
Y-28073D01*
X52474D01*
Y-29089D01*
X51458D01*
Y-27819D02*
Y-26803D01*
X52474D01*
Y-27819D01*
X51458D01*
Y-26549D02*
Y-25533D01*
X52474D01*
Y-26549D01*
X51458D01*
Y-25279D02*
Y-24263D01*
X52474D01*
Y-25279D01*
X51458D01*
Y-24009D02*
Y-22993D01*
X52474D01*
Y-24009D01*
X51458D01*
Y-22739D02*
Y-21723D01*
X52474D01*
Y-22739D01*
X51458D01*
X50016Y-76084D02*
X49508Y-75068D01*
X50524D01*
X50016Y-76084D01*
Y-3684D02*
X49508Y-2668D01*
X50524D01*
X50016Y-3684D01*
X64000Y-5508D02*
X64254Y-5254D01*
X64508D01*
X64254Y-5000D01*
X64508Y-4746D01*
X64254D01*
X64000Y-4492D01*
X63746Y-4746D01*
X63492D01*
X63746Y-5000D01*
X63492Y-5254D01*
X63746D01*
X64000Y-5508D01*
X6000D02*
X6254Y-5254D01*
X6508D01*
X6254Y-5000D01*
X6508Y-4746D01*
X6254D01*
X6000Y-4492D01*
X5746Y-4746D01*
X5492D01*
X5746Y-5000D01*
X5492Y-5254D01*
X5746D01*
X6000Y-5508D01*
D43*
X49734Y-9376D02*
G03*
X49734Y-9376I-508J0D01*
G01*
Y-69376D02*
G03*
X49734Y-69376I-508J0D01*
G01*
%TF.MD5,d6a7a1f987f051688881413cac50aab4*%
M02*
