%TF.GenerationSoftware,Altium Limited,Altium Designer,24.7.2 (38)*%
G04 Layer_Color=128*
%FSLAX43Y43*%
%MOMM*%
%TF.SameCoordinates,6EE5CD54-FE70-432D-B01E-CA14D31D91FF*%
%TF.FilePolarity,Positive*%
%TF.FileFunction,Drillmap*%
%TF.Part,Single*%
G01*
G75*
%TA.AperFunction,NonConductor*%
%ADD33C,0.127*%
D33*
X51616Y-56521D02*
X52316D01*
X51966Y-56871D02*
Y-56171D01*
X51616Y-55251D02*
X52316D01*
X51966Y-55601D02*
Y-54901D01*
X51616Y-53981D02*
X52316D01*
X51966Y-54331D02*
Y-53631D01*
X51616Y-52711D02*
X52316D01*
X51966Y-53061D02*
Y-52361D01*
X51616Y-51441D02*
X52316D01*
X51966Y-51791D02*
Y-51091D01*
X51616Y-50171D02*
X52316D01*
X51966Y-50521D02*
Y-49821D01*
X51616Y-48901D02*
X52316D01*
X51966Y-49251D02*
Y-48551D01*
X51616Y-47631D02*
X52316D01*
X51966Y-47981D02*
Y-47281D01*
X51616Y-46361D02*
X52316D01*
X51966Y-46711D02*
Y-46011D01*
X51616Y-45091D02*
X52316D01*
X51966Y-45441D02*
Y-44741D01*
X51616Y-43821D02*
X52316D01*
X51966Y-44171D02*
Y-43471D01*
X51616Y-42551D02*
X52316D01*
X51966Y-42901D02*
Y-42201D01*
X51616Y-41281D02*
X52316D01*
X51966Y-41631D02*
Y-40931D01*
X51616Y-40011D02*
X52316D01*
X51966Y-40361D02*
Y-39661D01*
X51616Y-38741D02*
X52316D01*
X51966Y-39091D02*
Y-38391D01*
X51616Y-37471D02*
X52316D01*
X51966Y-37821D02*
Y-37121D01*
X51616Y-36201D02*
X52316D01*
X51966Y-36551D02*
Y-35851D01*
X51616Y-34931D02*
X52316D01*
X51966Y-35281D02*
Y-34581D01*
X51616Y-33661D02*
X52316D01*
X51966Y-34011D02*
Y-33311D01*
X51616Y-32391D02*
X52316D01*
X51966Y-32741D02*
Y-32041D01*
X51616Y-31121D02*
X52316D01*
X51966Y-31471D02*
Y-30771D01*
X51616Y-29851D02*
X52316D01*
X51966Y-30201D02*
Y-29501D01*
X51616Y-28581D02*
X52316D01*
X51966Y-28931D02*
Y-28231D01*
X51616Y-27311D02*
X52316D01*
X51966Y-27661D02*
Y-26961D01*
X51616Y-26041D02*
X52316D01*
X51966Y-26391D02*
Y-25691D01*
X51616Y-24771D02*
X52316D01*
X51966Y-25121D02*
Y-24421D01*
X51616Y-23501D02*
X52316D01*
X51966Y-23851D02*
Y-23151D01*
X51616Y-22231D02*
X52316D01*
X51966Y-22581D02*
Y-21881D01*
X48726Y-9376D02*
X49726D01*
X49226Y-9876D02*
Y-8876D01*
X48726Y-69376D02*
X49726D01*
X49226Y-69876D02*
Y-68876D01*
X49216Y-75576D02*
X50816D01*
X50016Y-76376D02*
Y-74776D01*
X49216Y-3176D02*
X50816D01*
X50016Y-3976D02*
Y-2376D01*
X61800Y-5000D02*
X66200D01*
X64000Y-7200D02*
Y-2800D01*
X3800Y-5000D02*
X8200D01*
X6000Y-7200D02*
Y-2800D01*
%TF.MD5,4341acf9522abe0ea35a7df99f2e1d69*%
M02*
