%TF.GenerationSoftware,Altium Limited,Altium Designer,24.7.2 (38)*%
G04 Layer_Color=32896*
%FSLAX43Y43*%
%MOMM*%
%TF.SameCoordinates,6EE5CD54-FE70-432D-B01E-CA14D31D91FF*%
%TF.FilePolarity,Positive*%
%TF.FileFunction,Legend,Bot*%
%TF.Part,Single*%
G01*
G75*
%TA.AperFunction,NonConductor*%
%ADD33C,0.127*%
%ADD34C,0.254*%
%ADD35C,0.250*%
%ADD36C,0.200*%
D33*
X58301Y-20915D02*
X59601D01*
X58301Y-24055D02*
X59601D01*
X58301Y-21865D02*
Y-20915D01*
Y-24055D02*
Y-23105D01*
D34*
X30730Y-75742D02*
X31746D01*
X30730Y-74726D01*
Y-74472D01*
X30984Y-74219D01*
X31492D01*
X31746Y-74472D01*
X29461Y-75742D02*
Y-74219D01*
X30222Y-74980D01*
X29207D01*
X28699Y-75742D02*
X28191D01*
X28445D01*
Y-74219D01*
X28699Y-74472D01*
X26668Y-75742D02*
Y-74219D01*
X27429Y-74980D01*
X26414D01*
X25906Y-75996D02*
X24890D01*
X23367Y-74472D02*
X23621Y-74219D01*
X24128D01*
X24382Y-74472D01*
Y-74726D01*
X24128Y-74980D01*
X23621D01*
X23367Y-75234D01*
Y-75488D01*
X23621Y-75742D01*
X24128D01*
X24382Y-75488D01*
X21843Y-74726D02*
X22605D01*
X22859Y-74980D01*
Y-75488D01*
X22605Y-75742D01*
X21843D01*
X21335Y-74726D02*
Y-75742D01*
Y-75234D01*
X21081Y-74980D01*
X20828Y-74726D01*
X20574D01*
X19050Y-75742D02*
X19558D01*
X19812Y-75488D01*
Y-74980D01*
X19558Y-74726D01*
X19050D01*
X18796Y-74980D01*
Y-75234D01*
X19812D01*
X17527Y-75742D02*
X18034D01*
X18288Y-75488D01*
Y-74980D01*
X18034Y-74726D01*
X17527D01*
X17273Y-74980D01*
Y-75234D01*
X18288D01*
X16765Y-75742D02*
Y-74726D01*
X16003D01*
X15749Y-74980D01*
Y-75742D01*
X15241Y-74219D02*
Y-75742D01*
Y-74980D01*
X14226D01*
Y-74219D01*
Y-75742D01*
X13464D02*
X12956D01*
X12702Y-75488D01*
Y-74980D01*
X12956Y-74726D01*
X13464D01*
X13718Y-74980D01*
Y-75488D01*
X13464Y-75742D01*
X12194D02*
X11686D01*
X11940D01*
Y-74219D01*
X12194D01*
X9909D02*
Y-75742D01*
X10671D01*
X10925Y-75488D01*
Y-74980D01*
X10671Y-74726D01*
X9909D01*
X8639Y-75742D02*
X9147D01*
X9401Y-75488D01*
Y-74980D01*
X9147Y-74726D01*
X8639D01*
X8386Y-74980D01*
Y-75234D01*
X9401D01*
X7878Y-74726D02*
Y-75742D01*
Y-75234D01*
X7624Y-74980D01*
X7370Y-74726D01*
X7116D01*
X44254Y-41492D02*
X44508Y-41238D01*
X45016D01*
X45270Y-41492D01*
Y-42508D01*
X45016Y-42762D01*
X44508D01*
X44254Y-42508D01*
X43746Y-41492D02*
X43492Y-41238D01*
X42984D01*
X42730Y-41492D01*
Y-41746D01*
X42984Y-42000D01*
X43238D01*
X42984D01*
X42730Y-42254D01*
Y-42508D01*
X42984Y-42762D01*
X43492D01*
X43746Y-42508D01*
X68389Y-19729D02*
Y-18206D01*
X67627D01*
X67373Y-18460D01*
Y-18968D01*
X67627Y-19221D01*
X68389D01*
X67881D02*
X67373Y-19729D01*
X66865Y-18460D02*
X66611Y-18206D01*
X66103D01*
X65849Y-18460D01*
Y-18714D01*
X66103Y-18968D01*
X66357D01*
X66103D01*
X65849Y-19221D01*
Y-19475D01*
X66103Y-19729D01*
X66611D01*
X66865Y-19475D01*
X56516Y-22042D02*
X55500D01*
X56008D01*
Y-23565D01*
X54992D02*
X54484D01*
X54738D01*
Y-22042D01*
X54992Y-22296D01*
X68038Y-70195D02*
X68545D01*
X68291D01*
Y-71464D01*
X68545Y-71718D01*
X68799D01*
X69053Y-71464D01*
X67530Y-71718D02*
X67022D01*
X67276D01*
Y-70195D01*
X67530Y-70449D01*
X63270Y-28512D02*
Y-26988D01*
X62508D01*
X62254Y-27242D01*
Y-27750D01*
X62508Y-28004D01*
X63270D01*
X62762D02*
X62254Y-28512D01*
X60730D02*
X61746D01*
X60730Y-27496D01*
Y-27242D01*
X60984Y-26988D01*
X61492D01*
X61746Y-27242D01*
X67865Y-22297D02*
Y-20773D01*
X67103D01*
X66850Y-21027D01*
Y-21535D01*
X67103Y-21789D01*
X67865D01*
X67357D02*
X66850Y-22297D01*
X66342D02*
X65834D01*
X66088D01*
Y-20773D01*
X66342Y-21027D01*
X49936Y-48721D02*
X50190Y-48975D01*
Y-49483D01*
X49936Y-49737D01*
X48921D01*
X48667Y-49483D01*
Y-48975D01*
X48921Y-48721D01*
X48667Y-48213D02*
Y-47706D01*
Y-47959D01*
X50190D01*
X49936Y-48213D01*
X48667Y-46944D02*
Y-46436D01*
Y-46690D01*
X50190D01*
X49936Y-46944D01*
X47758Y-45139D02*
X48012Y-45393D01*
Y-45900D01*
X47758Y-46154D01*
X46742D01*
X46488Y-45900D01*
Y-45393D01*
X46742Y-45139D01*
X46488Y-44631D02*
Y-44123D01*
Y-44377D01*
X48012D01*
X47758Y-44631D01*
Y-43361D02*
X48012Y-43107D01*
Y-42600D01*
X47758Y-42346D01*
X46742D01*
X46488Y-42600D01*
Y-43107D01*
X46742Y-43361D01*
X47758D01*
X49987Y-44831D02*
X50241Y-45085D01*
Y-45593D01*
X49987Y-45847D01*
X48972D01*
X48718Y-45593D01*
Y-45085D01*
X48972Y-44831D01*
Y-44323D02*
X48718Y-44069D01*
Y-43561D01*
X48972Y-43308D01*
X49987D01*
X50241Y-43561D01*
Y-44069D01*
X49987Y-44323D01*
X49733D01*
X49479Y-44069D01*
Y-43308D01*
X46754Y-47075D02*
X47008Y-46821D01*
X47516D01*
X47770Y-47075D01*
Y-48091D01*
X47516Y-48345D01*
X47008D01*
X46754Y-48091D01*
X46246Y-47075D02*
X45992Y-46821D01*
X45484D01*
X45230Y-47075D01*
Y-47329D01*
X45484Y-47583D01*
X45230Y-47837D01*
Y-48091D01*
X45484Y-48345D01*
X45992D01*
X46246Y-48091D01*
Y-47837D01*
X45992Y-47583D01*
X46246Y-47329D01*
Y-47075D01*
X45992Y-47583D02*
X45484D01*
X46754Y-49163D02*
X47008Y-48909D01*
X47516D01*
X47770Y-49163D01*
Y-50179D01*
X47516Y-50433D01*
X47008D01*
X46754Y-50179D01*
X46246Y-48909D02*
X45230D01*
Y-49163D01*
X46246Y-50179D01*
Y-50433D01*
X46754Y-51242D02*
X47008Y-50988D01*
X47516D01*
X47770Y-51242D01*
Y-52258D01*
X47516Y-52512D01*
X47008D01*
X46754Y-52258D01*
X45230Y-50988D02*
X45738Y-51242D01*
X46246Y-51750D01*
Y-52258D01*
X45992Y-52512D01*
X45484D01*
X45230Y-52258D01*
Y-52004D01*
X45484Y-51750D01*
X46246D01*
X46754Y-53242D02*
X47008Y-52988D01*
X47516D01*
X47770Y-53242D01*
Y-54258D01*
X47516Y-54512D01*
X47008D01*
X46754Y-54258D01*
X45230Y-52988D02*
X46246D01*
Y-53750D01*
X45738Y-53496D01*
X45484D01*
X45230Y-53750D01*
Y-54258D01*
X45484Y-54512D01*
X45992D01*
X46246Y-54258D01*
X46754Y-55242D02*
X47008Y-54988D01*
X47516D01*
X47770Y-55242D01*
Y-56258D01*
X47516Y-56512D01*
X47008D01*
X46754Y-56258D01*
X45484Y-56512D02*
Y-54988D01*
X46246Y-55750D01*
X45230D01*
X47775Y-39516D02*
X48029Y-39770D01*
Y-40278D01*
X47775Y-40532D01*
X46759D01*
X46505Y-40278D01*
Y-39770D01*
X46759Y-39516D01*
X46505Y-37993D02*
Y-39008D01*
X47521Y-37993D01*
X47775D01*
X48029Y-38247D01*
Y-38754D01*
X47775Y-39008D01*
X50569Y-39262D02*
X50823Y-39516D01*
Y-40024D01*
X50569Y-40278D01*
X49553D01*
X49299Y-40024D01*
Y-39516D01*
X49553Y-39262D01*
X49299Y-38754D02*
Y-38247D01*
Y-38501D01*
X50823D01*
X50569Y-38754D01*
D35*
X66463Y-72100D02*
G03*
X66463Y-72100I-125J0D01*
G01*
D36*
X61251Y-21535D02*
G03*
X61251Y-21535I-100J0D01*
G01*
X52363Y-77450D02*
X53438D01*
X52363Y-78625D02*
Y-77450D01*
X53438D02*
Y-76000D01*
X55038Y-73075D02*
X55838D01*
X66038D02*
X66838D01*
X68438Y-77450D02*
X69513D01*
X52363Y-78625D02*
X69513D01*
Y-77450D01*
X68438D02*
Y-76000D01*
%TF.MD5,c09aa3304905856765b283f79dae681c*%
M02*
