%TF.GenerationSoftware,Altium Limited,Altium Designer,24.7.2 (38)*%
G04 Layer_Physical_Order=2*
G04 Layer_Color=16711680*
%FSLAX43Y43*%
%MOMM*%
%TF.SameCoordinates,6EE5CD54-FE70-432D-B01E-CA14D31D91FF*%
%TF.FilePolarity,Positive*%
%TF.FileFunction,Copper,L2,Bot,Signal*%
%TF.Part,Single*%
G01*
G75*
%TA.AperFunction,ComponentPad*%
%ADD10C,1.100*%
%ADD11R,1.100X1.100*%
%ADD12O,2.000X4.000*%
%ADD13C,2.400*%
%TA.AperFunction,Conductor*%
%ADD14C,0.152*%
%TA.AperFunction,NonConductor*%
%ADD15C,0.152*%
%TA.AperFunction,SMDPad,CuDef*%
G04:AMPARAMS|DCode=16|XSize=1.05mm|YSize=1.1mm|CornerRadius=0.263mm|HoleSize=0mm|Usage=FLASHONLY|Rotation=270.000|XOffset=0mm|YOffset=0mm|HoleType=Round|Shape=RoundedRectangle|*
%AMROUNDEDRECTD16*
21,1,1.050,0.575,0,0,270.0*
21,1,0.525,1.100,0,0,270.0*
1,1,0.525,-0.288,-0.263*
1,1,0.525,-0.288,0.263*
1,1,0.525,0.288,0.263*
1,1,0.525,0.288,-0.263*
%
%ADD16ROUNDEDRECTD16*%
%ADD17C,0.200*%
G04:AMPARAMS|DCode=18|XSize=1.05mm|YSize=1.1mm|CornerRadius=0.263mm|HoleSize=0mm|Usage=FLASHONLY|Rotation=0.000|XOffset=0mm|YOffset=0mm|HoleType=Round|Shape=RoundedRectangle|*
%AMROUNDEDRECTD18*
21,1,1.050,0.575,0,0,0.0*
21,1,0.525,1.100,0,0,0.0*
1,1,0.525,0.263,-0.288*
1,1,0.525,-0.263,-0.288*
1,1,0.525,-0.263,0.288*
1,1,0.525,0.263,0.288*
%
%ADD18ROUNDEDRECTD18*%
G04:AMPARAMS|DCode=19|XSize=1mm|YSize=1.05mm|CornerRadius=0.25mm|HoleSize=0mm|Usage=FLASHONLY|Rotation=270.000|XOffset=0mm|YOffset=0mm|HoleType=Round|Shape=RoundedRectangle|*
%AMROUNDEDRECTD19*
21,1,1.000,0.550,0,0,270.0*
21,1,0.500,1.050,0,0,270.0*
1,1,0.500,-0.275,-0.250*
1,1,0.500,-0.275,0.250*
1,1,0.500,0.275,0.250*
1,1,0.500,0.275,-0.250*
%
%ADD19ROUNDEDRECTD19*%
G04:AMPARAMS|DCode=20|XSize=1mm|YSize=1.05mm|CornerRadius=0.25mm|HoleSize=0mm|Usage=FLASHONLY|Rotation=0.000|XOffset=0mm|YOffset=0mm|HoleType=Round|Shape=RoundedRectangle|*
%AMROUNDEDRECTD20*
21,1,1.000,0.550,0,0,0.0*
21,1,0.500,1.050,0,0,0.0*
1,1,0.500,0.250,-0.275*
1,1,0.500,-0.250,-0.275*
1,1,0.500,-0.250,0.275*
1,1,0.500,0.250,0.275*
%
%ADD20ROUNDEDRECTD20*%
%ADD21R,1.800X2.600*%
%ADD22R,0.600X2.200*%
G04:AMPARAMS|DCode=23|XSize=1.23mm|YSize=0.6mm|CornerRadius=0.075mm|HoleSize=0mm|Usage=FLASHONLY|Rotation=180.000|XOffset=0mm|YOffset=0mm|HoleType=Round|Shape=RoundedRectangle|*
%AMROUNDEDRECTD23*
21,1,1.230,0.450,0,0,180.0*
21,1,1.080,0.600,0,0,180.0*
1,1,0.150,-0.540,0.225*
1,1,0.150,0.540,0.225*
1,1,0.150,0.540,-0.225*
1,1,0.150,-0.540,-0.225*
%
%ADD23ROUNDEDRECTD23*%
%TA.AperFunction,FiducialPad,Global*%
%ADD24C,1.500*%
%TA.AperFunction,Conductor*%
%ADD25C,0.300*%
%ADD26C,0.500*%
%ADD27C,0.200*%
%TA.AperFunction,NonConductor*%
%ADD28C,0.203*%
%TA.AperFunction,ComponentPad*%
%ADD29C,7.400*%
G36*
X69745Y-78745D02*
X151D01*
Y-261D01*
X69745D01*
Y-78745D01*
D02*
G37*
%LPC*%
G36*
X50016Y-1813D02*
X49663Y-1860D01*
X49335Y-1996D01*
X49052Y-2212D01*
X48836Y-2495D01*
X48700Y-2823D01*
X48653Y-3176D01*
X48700Y-3529D01*
X48836Y-3857D01*
X49052Y-4140D01*
X49335Y-4356D01*
X49663Y-4492D01*
X50016Y-4539D01*
X50369Y-4492D01*
X50697Y-4356D01*
X50980Y-4140D01*
X51196Y-3857D01*
X51332Y-3529D01*
X51379Y-3176D01*
X51332Y-2823D01*
X51196Y-2495D01*
X50980Y-2212D01*
X50697Y-1996D01*
X50369Y-1860D01*
X50016Y-1813D01*
D02*
G37*
G36*
X64000Y-1137D02*
X63396Y-1185D01*
X62806Y-1326D01*
X62246Y-1558D01*
X61729Y-1875D01*
X61269Y-2269D01*
X60875Y-2729D01*
X60558Y-3246D01*
X60326Y-3806D01*
X60185Y-4396D01*
X60137Y-5000D01*
X60185Y-5604D01*
X60326Y-6194D01*
X60558Y-6754D01*
X60875Y-7271D01*
X61269Y-7732D01*
X61729Y-8125D01*
X62246Y-8442D01*
X62806Y-8674D01*
X63396Y-8815D01*
X64000Y-8863D01*
X64604Y-8815D01*
X65194Y-8674D01*
X65754Y-8442D01*
X66271Y-8125D01*
X66732Y-7732D01*
X67125Y-7271D01*
X67442Y-6754D01*
X67674Y-6194D01*
X67815Y-5604D01*
X67863Y-5000D01*
X67815Y-4396D01*
X67674Y-3806D01*
X67442Y-3246D01*
X67125Y-2729D01*
X66732Y-2269D01*
X66271Y-1875D01*
X65754Y-1558D01*
X65194Y-1326D01*
X64604Y-1185D01*
X64000Y-1137D01*
D02*
G37*
G36*
X6000D02*
X5396Y-1185D01*
X4806Y-1326D01*
X4246Y-1558D01*
X3729Y-1875D01*
X3269Y-2269D01*
X2875Y-2729D01*
X2558Y-3246D01*
X2326Y-3806D01*
X2185Y-4396D01*
X2137Y-5000D01*
X2185Y-5604D01*
X2326Y-6194D01*
X2558Y-6754D01*
X2875Y-7271D01*
X3269Y-7732D01*
X3729Y-8125D01*
X4246Y-8442D01*
X4806Y-8674D01*
X5396Y-8815D01*
X6000Y-8863D01*
X6604Y-8815D01*
X7194Y-8674D01*
X7754Y-8442D01*
X8271Y-8125D01*
X8731Y-7732D01*
X9125Y-7271D01*
X9442Y-6754D01*
X9674Y-6194D01*
X9815Y-5604D01*
X9863Y-5000D01*
X9815Y-4396D01*
X9674Y-3806D01*
X9442Y-3246D01*
X9125Y-2729D01*
X8731Y-2269D01*
X8271Y-1875D01*
X7754Y-1558D01*
X7194Y-1326D01*
X6604Y-1185D01*
X6000Y-1137D01*
D02*
G37*
G36*
X64148Y-13506D02*
X63852D01*
X63562Y-13564D01*
X63289Y-13677D01*
X63044Y-13841D01*
X62835Y-14050D01*
X62671Y-14295D01*
X62558Y-14568D01*
X62500Y-14858D01*
Y-15154D01*
X62558Y-15444D01*
X62671Y-15717D01*
X62835Y-15962D01*
X63044Y-16171D01*
X63289Y-16335D01*
X63562Y-16448D01*
X63852Y-16506D01*
X64148D01*
X64438Y-16448D01*
X64711Y-16335D01*
X64956Y-16171D01*
X65165Y-15962D01*
X65329Y-15717D01*
X65442Y-15444D01*
X65500Y-15154D01*
Y-14858D01*
X65442Y-14568D01*
X65329Y-14295D01*
X65165Y-14050D01*
X64956Y-13841D01*
X64711Y-13677D01*
X64438Y-13564D01*
X64148Y-13506D01*
D02*
G37*
G36*
X14148D02*
X13852D01*
X13562Y-13564D01*
X13289Y-13677D01*
X13044Y-13841D01*
X12835Y-14050D01*
X12671Y-14295D01*
X12558Y-14568D01*
X12500Y-14858D01*
Y-15154D01*
X12558Y-15444D01*
X12671Y-15717D01*
X12835Y-15962D01*
X13044Y-16171D01*
X13289Y-16335D01*
X13562Y-16448D01*
X13852Y-16506D01*
X14148D01*
X14438Y-16448D01*
X14711Y-16335D01*
X14956Y-16171D01*
X15165Y-15962D01*
X15329Y-15717D01*
X15442Y-15444D01*
X15500Y-15154D01*
Y-14858D01*
X15442Y-14568D01*
X15329Y-14295D01*
X15165Y-14050D01*
X14956Y-13841D01*
X14711Y-13677D01*
X14438Y-13564D01*
X14148Y-13506D01*
D02*
G37*
G36*
X64419Y-18982D02*
X64244D01*
Y-19591D01*
X64878D01*
Y-19441D01*
X64843Y-19265D01*
X64743Y-19117D01*
X64595Y-19017D01*
X64419Y-18982D01*
D02*
G37*
G36*
X64044D02*
X63869D01*
X63693Y-19017D01*
X63545Y-19117D01*
X63445Y-19265D01*
X63410Y-19441D01*
Y-19591D01*
X64044D01*
Y-18982D01*
D02*
G37*
G36*
X64878Y-19791D02*
X64244D01*
Y-20400D01*
X64419D01*
X64595Y-20365D01*
X64743Y-20265D01*
X64843Y-20117D01*
X64878Y-19941D01*
Y-19791D01*
D02*
G37*
G36*
X64044D02*
X63410D01*
Y-19941D01*
X63445Y-20117D01*
X63545Y-20265D01*
X63693Y-20365D01*
X63869Y-20400D01*
X64044D01*
Y-19791D01*
D02*
G37*
G36*
X62669Y-19032D02*
X62119D01*
X61963Y-19063D01*
X61830Y-19152D01*
X61741Y-19285D01*
X61710Y-19441D01*
Y-19941D01*
X61741Y-20097D01*
X61830Y-20230D01*
X61963Y-20319D01*
X61985Y-20323D01*
Y-20903D01*
X61963Y-20907D01*
X61830Y-20996D01*
X61743Y-21126D01*
X60683D01*
X60639Y-21097D01*
X60551Y-21080D01*
X59471D01*
X59383Y-21097D01*
X59308Y-21147D01*
X59258Y-21222D01*
X59241Y-21310D01*
Y-21760D01*
X59258Y-21848D01*
X59308Y-21923D01*
X59383Y-21973D01*
X59471Y-21990D01*
X60551D01*
X60639Y-21973D01*
X60683Y-21944D01*
X61743D01*
X61830Y-22074D01*
X61963Y-22163D01*
X62119Y-22194D01*
X62669D01*
X62825Y-22163D01*
X62958Y-22074D01*
X63047Y-21941D01*
X63078Y-21785D01*
Y-21285D01*
X63047Y-21129D01*
X62958Y-20996D01*
X62825Y-20907D01*
X62803Y-20903D01*
Y-20323D01*
X62825Y-20319D01*
X62958Y-20230D01*
X63047Y-20097D01*
X63078Y-19941D01*
Y-19441D01*
X63047Y-19285D01*
X62958Y-19152D01*
X62825Y-19063D01*
X62669Y-19032D01*
D02*
G37*
G36*
X49226Y-7215D02*
X48926Y-7255D01*
X48646Y-7371D01*
X48405Y-7555D01*
X48221Y-7796D01*
X48105Y-8076D01*
X48065Y-8376D01*
Y-10376D01*
X48105Y-10676D01*
X48221Y-10956D01*
X48405Y-11197D01*
X48646Y-11381D01*
X48926Y-11497D01*
X49226Y-11537D01*
X49526Y-11497D01*
X49698Y-11426D01*
X57482Y-19210D01*
Y-22030D01*
X57351D01*
X57263Y-22047D01*
X57188Y-22097D01*
X57138Y-22172D01*
X57121Y-22260D01*
Y-22710D01*
X57138Y-22798D01*
X57188Y-22873D01*
X57263Y-22923D01*
X57351Y-22940D01*
X58431D01*
X58519Y-22923D01*
X58594Y-22873D01*
X58644Y-22798D01*
X58661Y-22710D01*
Y-22260D01*
X58644Y-22172D01*
X58594Y-22097D01*
X58519Y-22047D01*
X58431Y-22030D01*
X58300D01*
Y-19041D01*
X58269Y-18885D01*
X58180Y-18752D01*
X50276Y-10848D01*
X50347Y-10676D01*
X50387Y-10376D01*
Y-8376D01*
X50347Y-8076D01*
X50231Y-7796D01*
X50047Y-7555D01*
X49806Y-7371D01*
X49526Y-7255D01*
X49226Y-7215D01*
D02*
G37*
G36*
X62122Y-22817D02*
X61622D01*
X61466Y-22848D01*
X61333Y-22937D01*
X61273Y-23026D01*
X60683D01*
X60639Y-22997D01*
X60551Y-22980D01*
X59471D01*
X59383Y-22997D01*
X59308Y-23047D01*
X59258Y-23122D01*
X59241Y-23210D01*
Y-23660D01*
X59258Y-23748D01*
X59308Y-23823D01*
X59383Y-23873D01*
X59471Y-23890D01*
X60551D01*
X60639Y-23873D01*
X60683Y-23844D01*
X61227D01*
X61244Y-23932D01*
X61333Y-24065D01*
X61466Y-24154D01*
X61622Y-24185D01*
X62122D01*
X62278Y-24154D01*
X62411Y-24065D01*
X62500Y-23932D01*
X62531Y-23776D01*
Y-23226D01*
X62500Y-23070D01*
X62411Y-22937D01*
X62278Y-22848D01*
X62122Y-22817D01*
D02*
G37*
G36*
Y-24517D02*
X61972D01*
Y-25151D01*
X62581D01*
Y-24976D01*
X62546Y-24800D01*
X62446Y-24652D01*
X62298Y-24552D01*
X62122Y-24517D01*
D02*
G37*
G36*
X61772D02*
X61622D01*
X61446Y-24552D01*
X61298Y-24652D01*
X61198Y-24800D01*
X61163Y-24976D01*
Y-25151D01*
X61772D01*
Y-24517D01*
D02*
G37*
G36*
X62581Y-25351D02*
X61972D01*
Y-25985D01*
X62122D01*
X62298Y-25950D01*
X62446Y-25850D01*
X62546Y-25702D01*
X62581Y-25526D01*
Y-25351D01*
D02*
G37*
G36*
X61772D02*
X61163D01*
Y-25526D01*
X61198Y-25702D01*
X61298Y-25850D01*
X61446Y-25950D01*
X61622Y-25985D01*
X61772D01*
Y-25351D01*
D02*
G37*
G36*
X56326Y-39644D02*
X56163D01*
Y-40303D01*
X56797D01*
Y-40116D01*
X56761Y-39935D01*
X56659Y-39782D01*
X56506Y-39680D01*
X56326Y-39644D01*
D02*
G37*
G36*
X55963D02*
X55801D01*
X55620Y-39680D01*
X55467Y-39782D01*
X55365Y-39935D01*
X55329Y-40116D01*
Y-40303D01*
X55963D01*
Y-39644D01*
D02*
G37*
G36*
X54686D02*
X54523D01*
Y-40303D01*
X55158D01*
Y-40116D01*
X55122Y-39935D01*
X55019Y-39782D01*
X54866Y-39680D01*
X54686Y-39644D01*
D02*
G37*
G36*
X54323D02*
X54161D01*
X53981Y-39680D01*
X53828Y-39782D01*
X53725Y-39935D01*
X53689Y-40116D01*
Y-40303D01*
X54323D01*
Y-39644D01*
D02*
G37*
G36*
X56797Y-40503D02*
X56163D01*
Y-41162D01*
X56326D01*
X56506Y-41126D01*
X56659Y-41024D01*
X56761Y-40871D01*
X56797Y-40691D01*
Y-40503D01*
D02*
G37*
G36*
X55963D02*
X55329D01*
Y-40691D01*
X55365Y-40871D01*
X55467Y-41024D01*
X55620Y-41126D01*
X55801Y-41162D01*
X55963D01*
Y-40503D01*
D02*
G37*
G36*
X55158D02*
X54523D01*
Y-41162D01*
X54686D01*
X54866Y-41126D01*
X55019Y-41024D01*
X55122Y-40871D01*
X55158Y-40691D01*
Y-40503D01*
D02*
G37*
G36*
X54323D02*
X53689D01*
Y-40691D01*
X53725Y-40871D01*
X53828Y-41024D01*
X53981Y-41126D01*
X54161Y-41162D01*
X54323D01*
Y-40503D01*
D02*
G37*
G36*
X51866Y-56621D02*
X51223D01*
X51235Y-56717D01*
X51311Y-56899D01*
X51431Y-57056D01*
X51588Y-57176D01*
X51770Y-57252D01*
X51866Y-57264D01*
Y-56621D01*
D02*
G37*
G36*
X14148Y-63500D02*
X13852D01*
X13562Y-63558D01*
X13289Y-63671D01*
X13044Y-63835D01*
X12835Y-64044D01*
X12671Y-64289D01*
X12558Y-64562D01*
X12500Y-64852D01*
Y-65148D01*
X12558Y-65438D01*
X12671Y-65711D01*
X12835Y-65956D01*
X13044Y-66165D01*
X13289Y-66329D01*
X13562Y-66442D01*
X13852Y-66500D01*
X14148D01*
X14438Y-66442D01*
X14711Y-66329D01*
X14956Y-66165D01*
X15165Y-65956D01*
X15329Y-65711D01*
X15442Y-65438D01*
X15500Y-65148D01*
Y-64852D01*
X15442Y-64562D01*
X15329Y-64289D01*
X15165Y-64044D01*
X14956Y-63835D01*
X14711Y-63671D01*
X14438Y-63558D01*
X14148Y-63500D01*
D02*
G37*
G36*
X64419Y-20876D02*
X63869D01*
X63713Y-20907D01*
X63580Y-20996D01*
X63491Y-21129D01*
X63460Y-21285D01*
Y-21785D01*
X63491Y-21941D01*
X63580Y-22074D01*
X63713Y-22163D01*
X63869Y-22194D01*
X64250D01*
X65029Y-22973D01*
Y-70715D01*
X64889Y-70749D01*
X64744Y-70637D01*
Y-34702D01*
X64721Y-34585D01*
X64655Y-34485D01*
X52667Y-22498D01*
Y-21530D01*
X51265D01*
Y-22932D01*
X51330D01*
X51404Y-23082D01*
X51354Y-23147D01*
X51283Y-23318D01*
X51259Y-23501D01*
X51283Y-23684D01*
X51354Y-23855D01*
X51466Y-24001D01*
X51519Y-24041D01*
Y-24231D01*
X51466Y-24271D01*
X51354Y-24417D01*
X51283Y-24588D01*
X51259Y-24771D01*
X51283Y-24954D01*
X51354Y-25125D01*
X51466Y-25271D01*
X51519Y-25311D01*
Y-25501D01*
X51466Y-25541D01*
X51354Y-25687D01*
X51283Y-25858D01*
X51259Y-26041D01*
X51283Y-26224D01*
X51354Y-26395D01*
X51466Y-26541D01*
X51519Y-26581D01*
Y-26771D01*
X51466Y-26811D01*
X51354Y-26957D01*
X51283Y-27128D01*
X51259Y-27311D01*
X51283Y-27494D01*
X51354Y-27665D01*
X51466Y-27811D01*
X51519Y-27851D01*
Y-28041D01*
X51466Y-28081D01*
X51354Y-28227D01*
X51283Y-28398D01*
X51259Y-28581D01*
X51283Y-28764D01*
X51354Y-28935D01*
X51466Y-29081D01*
X51519Y-29121D01*
Y-29311D01*
X51466Y-29351D01*
X51354Y-29497D01*
X51283Y-29668D01*
X51259Y-29851D01*
X51283Y-30034D01*
X51354Y-30205D01*
X51466Y-30351D01*
X51519Y-30391D01*
Y-30581D01*
X51466Y-30621D01*
X51354Y-30767D01*
X51283Y-30938D01*
X51259Y-31121D01*
X51283Y-31304D01*
X51354Y-31475D01*
X51466Y-31621D01*
X51519Y-31661D01*
Y-31851D01*
X51466Y-31891D01*
X51354Y-32037D01*
X51283Y-32208D01*
X51259Y-32391D01*
X51283Y-32574D01*
X51354Y-32745D01*
X51466Y-32891D01*
X51519Y-32931D01*
Y-33121D01*
X51466Y-33161D01*
X51354Y-33307D01*
X51283Y-33478D01*
X51259Y-33661D01*
X51283Y-33844D01*
X51354Y-34015D01*
X51466Y-34161D01*
X51519Y-34201D01*
Y-34391D01*
X51466Y-34431D01*
X51354Y-34577D01*
X51283Y-34748D01*
X51259Y-34931D01*
X51283Y-35114D01*
X51354Y-35285D01*
X51466Y-35431D01*
X51519Y-35471D01*
Y-35661D01*
X51466Y-35701D01*
X51354Y-35847D01*
X51283Y-36018D01*
X51259Y-36201D01*
X51283Y-36384D01*
X51354Y-36555D01*
X51466Y-36701D01*
X51519Y-36741D01*
Y-36931D01*
X51466Y-36971D01*
X51354Y-37117D01*
X51283Y-37288D01*
X51259Y-37471D01*
X51283Y-37654D01*
X51354Y-37825D01*
X51466Y-37971D01*
X51519Y-38011D01*
Y-38201D01*
X51466Y-38241D01*
X51354Y-38387D01*
X51283Y-38558D01*
X51259Y-38741D01*
X51283Y-38924D01*
X51354Y-39095D01*
X51466Y-39241D01*
X51479Y-39251D01*
Y-39440D01*
X51431Y-39476D01*
X51311Y-39633D01*
X51235Y-39815D01*
X51223Y-39911D01*
X51966D01*
X52709D01*
X52697Y-39815D01*
X52621Y-39633D01*
X52501Y-39476D01*
X52453Y-39440D01*
Y-39251D01*
X52466Y-39241D01*
X52578Y-39095D01*
X52613Y-39012D01*
X53764D01*
X53771Y-39052D01*
X53863Y-39189D01*
X54000Y-39280D01*
X54161Y-39312D01*
X54686D01*
X54847Y-39280D01*
X54984Y-39189D01*
X55075Y-39052D01*
X55083Y-39012D01*
X55403D01*
X55411Y-39052D01*
X55503Y-39189D01*
X55639Y-39280D01*
X55801Y-39312D01*
X56326D01*
X56487Y-39280D01*
X56624Y-39189D01*
X56711Y-39058D01*
X56806Y-39048D01*
X56862Y-39046D01*
X57613Y-39797D01*
Y-41637D01*
X57573Y-41645D01*
X57436Y-41736D01*
X57345Y-41873D01*
X57313Y-42034D01*
Y-42559D01*
X57345Y-42721D01*
X57436Y-42858D01*
X57573Y-42949D01*
X57613Y-42957D01*
Y-43400D01*
X57644Y-43556D01*
X57733Y-43689D01*
X58155Y-44112D01*
Y-47104D01*
X58115Y-47112D01*
X57979Y-47203D01*
X57887Y-47340D01*
X57855Y-47501D01*
Y-48026D01*
X57887Y-48188D01*
X57979Y-48324D01*
X58115Y-48416D01*
X58138Y-48420D01*
Y-48572D01*
X58081Y-48583D01*
X57944Y-48674D01*
X57853Y-48811D01*
X57820Y-48973D01*
Y-49498D01*
X57853Y-49659D01*
X57944Y-49796D01*
X58081Y-49887D01*
X58121Y-49895D01*
Y-50194D01*
X58103Y-50198D01*
X57966Y-50289D01*
X57875Y-50426D01*
X57843Y-50587D01*
Y-51112D01*
X57875Y-51274D01*
X57966Y-51410D01*
X58103Y-51502D01*
X58143Y-51510D01*
Y-51816D01*
X58011Y-51904D01*
X57920Y-52041D01*
X57888Y-52202D01*
Y-52727D01*
X57920Y-52888D01*
X58011Y-53025D01*
X58123Y-53100D01*
Y-53351D01*
X58081Y-53360D01*
X57944Y-53451D01*
X57853Y-53588D01*
X57820Y-53749D01*
Y-54274D01*
X57853Y-54436D01*
X57908Y-54518D01*
X57838Y-54668D01*
X57422D01*
X57352Y-54518D01*
X57407Y-54436D01*
X57439Y-54274D01*
Y-53749D01*
X57407Y-53588D01*
X57315Y-53451D01*
X57178Y-53360D01*
X57017Y-53328D01*
X56442D01*
X56281Y-53360D01*
X56144Y-53451D01*
X56053Y-53588D01*
X56045Y-53626D01*
X55882Y-53676D01*
X55525Y-53319D01*
X55525Y-53319D01*
X55525Y-53319D01*
X55442Y-53264D01*
X55442D01*
X55442Y-53264D01*
X55345Y-53244D01*
X55345Y-53244D01*
X53827D01*
X53827Y-53244D01*
X53729Y-53264D01*
X53646Y-53319D01*
X53646Y-53319D01*
X53240Y-53725D01*
X52619D01*
X52578Y-53627D01*
X52466Y-53481D01*
X52413Y-53441D01*
Y-53251D01*
X52466Y-53211D01*
X52578Y-53065D01*
X52649Y-52894D01*
X52654Y-52856D01*
X56113D01*
X56120Y-52888D01*
X56211Y-53025D01*
X56348Y-53117D01*
X56509Y-53149D01*
X57084D01*
X57246Y-53117D01*
X57382Y-53025D01*
X57474Y-52888D01*
X57506Y-52727D01*
Y-52202D01*
X57474Y-52041D01*
X57382Y-51904D01*
X57246Y-51812D01*
X57084Y-51780D01*
X56509D01*
X56348Y-51812D01*
X56211Y-51904D01*
X56120Y-52041D01*
X56088Y-52202D01*
Y-52344D01*
X52568D01*
X52466Y-52211D01*
X52413Y-52171D01*
Y-51981D01*
X52466Y-51941D01*
X52578Y-51795D01*
X52649Y-51624D01*
X52673Y-51441D01*
X52668Y-51400D01*
X52799Y-51250D01*
X56070D01*
X56075Y-51274D01*
X56166Y-51410D01*
X56303Y-51502D01*
X56465Y-51534D01*
X57040D01*
X57201Y-51502D01*
X57338Y-51410D01*
X57429Y-51274D01*
X57461Y-51112D01*
Y-50587D01*
X57429Y-50426D01*
X57338Y-50289D01*
X57201Y-50198D01*
X57040Y-50166D01*
X56465D01*
X56350Y-50188D01*
X56276Y-50050D01*
X56413Y-49913D01*
X56442Y-49919D01*
X57017D01*
X57178Y-49887D01*
X57315Y-49796D01*
X57407Y-49659D01*
X57439Y-49498D01*
Y-48973D01*
X57407Y-48811D01*
X57315Y-48674D01*
X57178Y-48583D01*
X57160Y-48579D01*
Y-48426D01*
X57213Y-48416D01*
X57350Y-48324D01*
X57441Y-48188D01*
X57473Y-48026D01*
Y-47501D01*
X57441Y-47340D01*
X57350Y-47203D01*
X57213Y-47112D01*
X57052Y-47080D01*
X56477D01*
X56315Y-47112D01*
X56179Y-47203D01*
X56087Y-47340D01*
X56075Y-47401D01*
X55986Y-47508D01*
X55888Y-47527D01*
X55805Y-47583D01*
X55805Y-47583D01*
X55319Y-48069D01*
X55264Y-48152D01*
X55244Y-48250D01*
X55244Y-48250D01*
Y-48473D01*
X55094Y-48488D01*
X55087Y-48452D01*
X54996Y-48315D01*
X54859Y-48224D01*
X54697Y-48192D01*
X54172D01*
X54011Y-48224D01*
X53874Y-48315D01*
X53783Y-48452D01*
X53751Y-48613D01*
Y-48645D01*
X53342D01*
X52609Y-47912D01*
X52649Y-47814D01*
X52673Y-47631D01*
X52656Y-47500D01*
X52666Y-47470D01*
X52732Y-47387D01*
X52774Y-47357D01*
X53751D01*
Y-47388D01*
X53783Y-47550D01*
X53874Y-47687D01*
X54011Y-47778D01*
X54172Y-47810D01*
X54697D01*
X54859Y-47778D01*
X54996Y-47687D01*
X55087Y-47550D01*
X55119Y-47388D01*
Y-46813D01*
X55087Y-46652D01*
X54996Y-46515D01*
X54911Y-46459D01*
X54896Y-46303D01*
X54901Y-46285D01*
X54949Y-46254D01*
X55015Y-46155D01*
X55048Y-46146D01*
X55148D01*
X55181Y-46155D01*
X55248Y-46254D01*
X55384Y-46345D01*
X55546Y-46377D01*
X56071D01*
X56232Y-46345D01*
X56369Y-46254D01*
X56460Y-46117D01*
X56492Y-45956D01*
Y-45381D01*
X56460Y-45219D01*
X56369Y-45082D01*
X56232Y-44991D01*
X56071Y-44959D01*
X55546D01*
X55384Y-44991D01*
X55248Y-45082D01*
X55181Y-45181D01*
X55148Y-45190D01*
X55048D01*
X55015Y-45181D01*
X54949Y-45082D01*
X54812Y-44991D01*
X54650Y-44959D01*
X54125D01*
X53964Y-44991D01*
X53827Y-45082D01*
X53736Y-45219D01*
X53704Y-45381D01*
Y-45412D01*
X52754D01*
X52653Y-45279D01*
X52651Y-45262D01*
X52673Y-45091D01*
X52649Y-44908D01*
X52578Y-44737D01*
X52466Y-44591D01*
X52413Y-44551D01*
Y-44361D01*
X52466Y-44321D01*
X52578Y-44175D01*
X52619Y-44077D01*
X53704D01*
Y-44156D01*
X53736Y-44317D01*
X53827Y-44454D01*
X53964Y-44545D01*
X54125Y-44577D01*
X54650D01*
X54812Y-44545D01*
X54949Y-44454D01*
X55015Y-44355D01*
X55048Y-44346D01*
X55148D01*
X55181Y-44355D01*
X55248Y-44454D01*
X55384Y-44545D01*
X55546Y-44577D01*
X56071D01*
X56232Y-44545D01*
X56369Y-44454D01*
X56460Y-44317D01*
X56492Y-44156D01*
Y-43581D01*
X56460Y-43419D01*
X56369Y-43282D01*
X56232Y-43191D01*
X56202Y-43185D01*
X56180Y-43131D01*
X56280Y-42981D01*
X56509D01*
X56671Y-42949D01*
X56807Y-42858D01*
X56899Y-42721D01*
X56931Y-42559D01*
Y-42034D01*
X56899Y-41873D01*
X56807Y-41736D01*
X56671Y-41645D01*
X56509Y-41613D01*
X55934D01*
X55773Y-41645D01*
X55636Y-41736D01*
X55545Y-41873D01*
X55513Y-42034D01*
Y-42041D01*
X53427D01*
X52672Y-41286D01*
X52673Y-41281D01*
X52649Y-41098D01*
X52578Y-40927D01*
X52466Y-40781D01*
X52453Y-40771D01*
Y-40582D01*
X52501Y-40546D01*
X52621Y-40389D01*
X52697Y-40207D01*
X52709Y-40111D01*
X51966D01*
X51223D01*
X51235Y-40207D01*
X51311Y-40389D01*
X51431Y-40546D01*
X51479Y-40582D01*
Y-40771D01*
X51466Y-40781D01*
X51354Y-40927D01*
X51283Y-41098D01*
X51259Y-41281D01*
X51283Y-41464D01*
X51354Y-41635D01*
X51466Y-41781D01*
X51519Y-41821D01*
Y-42011D01*
X51466Y-42051D01*
X51354Y-42197D01*
X51283Y-42368D01*
X51259Y-42551D01*
X51283Y-42734D01*
X51354Y-42905D01*
X51466Y-43051D01*
X51519Y-43091D01*
Y-43281D01*
X51466Y-43321D01*
X51354Y-43467D01*
X51283Y-43638D01*
X51259Y-43821D01*
X51283Y-44004D01*
X51354Y-44175D01*
X51466Y-44321D01*
X51519Y-44361D01*
Y-44551D01*
X51466Y-44591D01*
X51354Y-44737D01*
X51283Y-44908D01*
X51259Y-45091D01*
X51283Y-45274D01*
X51354Y-45445D01*
X51466Y-45591D01*
X51519Y-45631D01*
Y-45821D01*
X51466Y-45861D01*
X51354Y-46007D01*
X51283Y-46178D01*
X51259Y-46361D01*
X51283Y-46544D01*
X51354Y-46715D01*
X51466Y-46861D01*
X51519Y-46901D01*
Y-47091D01*
X51466Y-47131D01*
X51354Y-47277D01*
X51283Y-47448D01*
X51259Y-47631D01*
X51283Y-47814D01*
X51354Y-47985D01*
X51466Y-48131D01*
X51519Y-48171D01*
Y-48361D01*
X51466Y-48401D01*
X51354Y-48547D01*
X51283Y-48718D01*
X51259Y-48901D01*
X51283Y-49084D01*
X51354Y-49255D01*
X51466Y-49401D01*
X51519Y-49441D01*
Y-49631D01*
X51466Y-49671D01*
X51354Y-49817D01*
X51283Y-49988D01*
X51259Y-50171D01*
X51283Y-50354D01*
X51354Y-50525D01*
X51466Y-50671D01*
X51519Y-50711D01*
Y-50901D01*
X51466Y-50941D01*
X51354Y-51087D01*
X51283Y-51258D01*
X51259Y-51441D01*
X51283Y-51624D01*
X51354Y-51795D01*
X51466Y-51941D01*
X51519Y-51981D01*
Y-52171D01*
X51466Y-52211D01*
X51354Y-52357D01*
X51283Y-52528D01*
X51259Y-52711D01*
X51283Y-52894D01*
X51354Y-53065D01*
X51466Y-53211D01*
X51519Y-53251D01*
Y-53441D01*
X51466Y-53481D01*
X51354Y-53627D01*
X51283Y-53798D01*
X51259Y-53981D01*
X51283Y-54164D01*
X51354Y-54335D01*
X51466Y-54481D01*
X51519Y-54521D01*
Y-54711D01*
X51466Y-54751D01*
X51354Y-54897D01*
X51283Y-55068D01*
X51259Y-55251D01*
X51283Y-55434D01*
X51354Y-55605D01*
X51466Y-55751D01*
X51479Y-55761D01*
Y-55950D01*
X51431Y-55986D01*
X51311Y-56143D01*
X51235Y-56325D01*
X51223Y-56421D01*
X51966D01*
Y-56521D01*
X52066D01*
Y-57264D01*
X52162Y-57252D01*
X52344Y-57176D01*
X52501Y-57056D01*
X52621Y-56899D01*
X52672Y-56777D01*
X53983D01*
X54001Y-56794D01*
X54006Y-56802D01*
X54012Y-56806D01*
X54043Y-56847D01*
X54102Y-56892D01*
X54120Y-56908D01*
X54127Y-56911D01*
X54144Y-56924D01*
X54147Y-56928D01*
X54158Y-56935D01*
X54184Y-56955D01*
X54210Y-56966D01*
X54246Y-56987D01*
X54267Y-56990D01*
X54283Y-57003D01*
X54344Y-57021D01*
X54347Y-57022D01*
X54349Y-57023D01*
X54377Y-57031D01*
X54395Y-57029D01*
X54425Y-57049D01*
X54523Y-57068D01*
X54620Y-57049D01*
X54645Y-57032D01*
X54648Y-57032D01*
X54660Y-57027D01*
X54695Y-57023D01*
X54699Y-57023D01*
X54771Y-56998D01*
X54781Y-56988D01*
X54787Y-56985D01*
X54801Y-56983D01*
X54818Y-56972D01*
X54861Y-56955D01*
X54916Y-56913D01*
X54938Y-56899D01*
X54944Y-56891D01*
X54963Y-56877D01*
X54970Y-56874D01*
X54979Y-56864D01*
X55002Y-56847D01*
X55023Y-56819D01*
X55051Y-56790D01*
X55058Y-56774D01*
X55059Y-56773D01*
X55072Y-56763D01*
X55101Y-56718D01*
X55109Y-56707D01*
X55112Y-56699D01*
X55130Y-56671D01*
X55134Y-56649D01*
X55148Y-56633D01*
X55172Y-56556D01*
X55177Y-56543D01*
X55178Y-56536D01*
X55179Y-56531D01*
X55177Y-56515D01*
X55185Y-56478D01*
X55177Y-56438D01*
X55177Y-56429D01*
X55172Y-56414D01*
X55167Y-56390D01*
X55159Y-56378D01*
X55159Y-56378D01*
X55174Y-56247D01*
X55176Y-56216D01*
X55179Y-56203D01*
X55191Y-56171D01*
X55181Y-56148D01*
X55183Y-56123D01*
X55145Y-56004D01*
X55130Y-55987D01*
X55126Y-55964D01*
X55083Y-55900D01*
X55069Y-55890D01*
X55062Y-55875D01*
X55034Y-55847D01*
X55002Y-55804D01*
X54943Y-55759D01*
Y-55219D01*
X54949Y-55215D01*
X54955Y-55207D01*
X54974Y-55193D01*
X54981Y-55190D01*
X54991Y-55180D01*
X55013Y-55163D01*
X55035Y-55135D01*
X55063Y-55106D01*
X55069Y-55090D01*
X55070Y-55089D01*
X55084Y-55079D01*
X55112Y-55034D01*
X55121Y-55023D01*
X55124Y-55015D01*
X55141Y-54987D01*
X55145Y-54965D01*
X55159Y-54949D01*
X55183Y-54872D01*
X55188Y-54859D01*
X55225Y-54835D01*
X55263Y-54818D01*
X55340Y-54805D01*
X55900Y-55366D01*
X56033Y-55455D01*
X56189Y-55486D01*
X58121D01*
Y-67046D01*
X56268Y-68899D01*
X50387D01*
Y-68376D01*
X50347Y-68076D01*
X50231Y-67796D01*
X50047Y-67555D01*
X49806Y-67371D01*
X49526Y-67255D01*
X49226Y-67215D01*
X48926Y-67255D01*
X48646Y-67371D01*
X48405Y-67555D01*
X48221Y-67796D01*
X48105Y-68076D01*
X48065Y-68376D01*
Y-70376D01*
X48105Y-70676D01*
X48221Y-70956D01*
X48405Y-71197D01*
X48646Y-71381D01*
X48926Y-71497D01*
X49226Y-71537D01*
X49526Y-71497D01*
X49806Y-71381D01*
X50047Y-71197D01*
X50231Y-70956D01*
X50347Y-70676D01*
X50387Y-70376D01*
Y-69716D01*
X56029D01*
Y-70749D01*
X55987D01*
Y-73251D01*
X56889D01*
Y-73251D01*
X56987D01*
Y-73251D01*
X57889D01*
Y-73251D01*
X57987D01*
Y-73251D01*
X58889D01*
Y-73251D01*
X58987D01*
Y-73251D01*
X59889D01*
Y-73251D01*
X59987D01*
Y-73251D01*
X60889D01*
Y-73251D01*
X60987D01*
Y-73251D01*
X61889D01*
Y-73251D01*
X61987D01*
Y-73251D01*
X62808D01*
X62938Y-73300D01*
X63018Y-73300D01*
X63338D01*
Y-72000D01*
Y-70700D01*
X62938D01*
X62894Y-70716D01*
X62744Y-70618D01*
Y-70190D01*
X63655Y-69279D01*
X63721Y-69180D01*
X63744Y-69062D01*
Y-34972D01*
X63721Y-34855D01*
X63655Y-34755D01*
X52630Y-23731D01*
X52649Y-23684D01*
X52663Y-23575D01*
X52822Y-23521D01*
X64131Y-34830D01*
Y-70618D01*
X63981Y-70716D01*
X63938Y-70700D01*
X63857Y-70700D01*
X63538D01*
Y-72000D01*
Y-73300D01*
X63938D01*
X64067Y-73251D01*
X64837D01*
X64987Y-73251D01*
X65039Y-73251D01*
X65889D01*
Y-70749D01*
X65846D01*
Y-22803D01*
X65815Y-22647D01*
X65727Y-22514D01*
X64828Y-21616D01*
Y-21285D01*
X64797Y-21129D01*
X64708Y-20996D01*
X64575Y-20907D01*
X64419Y-20876D01*
D02*
G37*
G36*
X69089Y-72949D02*
X66987D01*
Y-75851D01*
X69089D01*
Y-72949D01*
D02*
G37*
G36*
X54889D02*
X52787D01*
Y-75851D01*
X54889D01*
Y-72949D01*
D02*
G37*
G36*
X50016Y-74213D02*
X49663Y-74260D01*
X49335Y-74396D01*
X49052Y-74612D01*
X48836Y-74895D01*
X48700Y-75223D01*
X48653Y-75576D01*
X48700Y-75929D01*
X48836Y-76257D01*
X49052Y-76540D01*
X49335Y-76756D01*
X49663Y-76892D01*
X50016Y-76939D01*
X50369Y-76892D01*
X50697Y-76756D01*
X50980Y-76540D01*
X51196Y-76257D01*
X51332Y-75929D01*
X51379Y-75576D01*
X51332Y-75223D01*
X51196Y-74895D01*
X50980Y-74612D01*
X50697Y-74396D01*
X50369Y-74260D01*
X50016Y-74213D01*
D02*
G37*
%LPD*%
G36*
X54727Y-54070D02*
X54826Y-54128D01*
X54884Y-54182D01*
X54958Y-54255D01*
X55001Y-54320D01*
X55039Y-54438D01*
X54966Y-54514D01*
X54104D01*
X54051Y-54484D01*
X54034Y-54433D01*
X54065Y-54332D01*
X54122Y-54240D01*
X54204Y-54156D01*
X54341Y-54072D01*
X54412Y-54047D01*
X54633Y-54042D01*
X54727Y-54070D01*
D02*
G37*
G36*
X55017Y-54748D02*
X55034Y-54799D01*
X55003Y-54900D01*
X54945Y-54992D01*
X54864Y-55076D01*
X54727Y-55160D01*
X54656Y-55185D01*
X54435Y-55190D01*
X54341Y-55162D01*
X54242Y-55104D01*
X54183Y-55050D01*
X54110Y-54977D01*
X54067Y-54912D01*
X54028Y-54794D01*
X54102Y-54718D01*
X54964D01*
X55017Y-54748D01*
D02*
G37*
G36*
X54716Y-55805D02*
X54815Y-55863D01*
X54873Y-55916D01*
X54947Y-55990D01*
X54990Y-56055D01*
X55028Y-56173D01*
X54955Y-56249D01*
X54093D01*
X54040Y-56219D01*
X54022Y-56168D01*
X54054Y-56067D01*
X54111Y-55975D01*
X54192Y-55891D01*
X54329Y-55807D01*
X54401Y-55782D01*
X54622Y-55777D01*
X54716Y-55805D01*
D02*
G37*
G36*
X55005Y-56432D02*
X55023Y-56483D01*
X54992Y-56584D01*
X54934Y-56676D01*
X54853Y-56760D01*
X54716Y-56844D01*
X54644Y-56869D01*
X54423Y-56874D01*
X54329Y-56846D01*
X54230Y-56788D01*
X54172Y-56734D01*
X54098Y-56661D01*
X54056Y-56596D01*
X54017Y-56478D01*
X54091Y-56402D01*
X54953D01*
X55005Y-56432D01*
D02*
G37*
D10*
X51966Y-56521D02*
D03*
Y-55251D02*
D03*
Y-53981D02*
D03*
Y-52711D02*
D03*
Y-51441D02*
D03*
Y-50171D02*
D03*
Y-48901D02*
D03*
Y-47631D02*
D03*
Y-46361D02*
D03*
Y-45091D02*
D03*
Y-43821D02*
D03*
Y-42551D02*
D03*
Y-41281D02*
D03*
Y-40011D02*
D03*
Y-38741D02*
D03*
Y-37471D02*
D03*
Y-36201D02*
D03*
Y-34931D02*
D03*
Y-33661D02*
D03*
Y-32391D02*
D03*
Y-31121D02*
D03*
Y-29851D02*
D03*
Y-28581D02*
D03*
Y-27311D02*
D03*
Y-26041D02*
D03*
Y-24771D02*
D03*
Y-23501D02*
D03*
D11*
Y-22231D02*
D03*
D12*
X49226Y-9376D02*
D03*
Y-69376D02*
D03*
D13*
X50016Y-75576D02*
D03*
Y-3176D02*
D03*
D14*
X54092Y-56478D02*
G03*
X54105Y-56521I431J111D01*
G01*
D02*
G03*
X54169Y-56638I417J153D01*
G01*
X54953Y-56172D02*
G03*
X54523Y-55839I-431J-111D01*
G01*
Y-56812D02*
G03*
X54953Y-56478I0J444D01*
G01*
X54523Y-56812D02*
G03*
X54953Y-56478I-0J444D01*
G01*
X54169Y-56638D02*
G03*
X54523Y-56812I353J270D01*
G01*
X54953Y-56172D02*
G03*
X54523Y-55839I-431J-111D01*
G01*
X54374Y-55864D02*
G03*
X54092Y-56172I149J-419D01*
G01*
X54523Y-55839D02*
G03*
X54374Y-55864I0J-444D01*
G01*
D15*
X54103Y-54794D02*
G03*
X54964Y-54794I431J111D01*
G01*
Y-54438D02*
G03*
X54103Y-54438I-431J-111D01*
G01*
D16*
X58597Y-52464D02*
D03*
X56797D02*
D03*
X58530Y-54012D02*
D03*
X56730D02*
D03*
X58552Y-50850D02*
D03*
X56752D02*
D03*
X58530Y-49235D02*
D03*
X56730D02*
D03*
X58564Y-47764D02*
D03*
X56764D02*
D03*
X56222Y-42297D02*
D03*
X58022D02*
D03*
D17*
X54523Y-56638D02*
D03*
Y-56013D02*
D03*
X54534Y-54954D02*
D03*
Y-54278D02*
D03*
D18*
X56063Y-40403D02*
D03*
Y-38603D02*
D03*
X54423Y-40403D02*
D03*
Y-38603D02*
D03*
X54388Y-45668D02*
D03*
Y-43868D02*
D03*
X55808D02*
D03*
Y-45668D02*
D03*
X54435Y-48901D02*
D03*
Y-47101D02*
D03*
D19*
X64144Y-21535D02*
D03*
X62394D02*
D03*
X64144Y-19691D02*
D03*
X62394D02*
D03*
D20*
X61872Y-25251D02*
D03*
Y-23501D02*
D03*
D21*
X53838Y-74400D02*
D03*
X68038D02*
D03*
D22*
X58438Y-72000D02*
D03*
X61438D02*
D03*
X65438D02*
D03*
X64438D02*
D03*
X63438D02*
D03*
X62438D02*
D03*
X60438D02*
D03*
X59438D02*
D03*
X57438D02*
D03*
X56438D02*
D03*
D23*
X60011Y-21535D02*
D03*
X57891Y-22485D02*
D03*
X60011Y-23435D02*
D03*
D24*
X64000Y-15006D02*
D03*
X14000D02*
D03*
X14000Y-65000D02*
D03*
D25*
X59438Y-70062D02*
X61250Y-68250D01*
Y-36595D01*
X51966Y-27311D02*
X61250Y-36595D01*
X57451Y-36201D02*
X60500Y-39250D01*
X58438Y-70062D02*
X60500Y-68000D01*
Y-39250D01*
X57358Y-37471D02*
X59750Y-39863D01*
X57438Y-70062D02*
X59750Y-67750D01*
Y-39863D01*
X59438Y-72000D02*
Y-70062D01*
X51966Y-37471D02*
X57358D01*
X63438Y-69062D02*
Y-34972D01*
X51966Y-23501D02*
X63438Y-34972D01*
X62438Y-70062D02*
X63438Y-69062D01*
X51966Y-24771D02*
X62750Y-35555D01*
X61438Y-70062D02*
X62750Y-68750D01*
Y-35555D01*
X62000Y-68500D02*
Y-36075D01*
X51966Y-26041D02*
X62000Y-36075D01*
X60438Y-70062D02*
X62000Y-68500D01*
X62438Y-72000D02*
Y-70062D01*
X57438Y-72000D02*
Y-70062D01*
X51966Y-22231D02*
X64438Y-34702D01*
X58438Y-72000D02*
Y-70062D01*
X61438Y-72000D02*
Y-70062D01*
X60438Y-72000D02*
Y-70062D01*
X51966Y-36201D02*
X57451D01*
X64438Y-72000D02*
Y-34702D01*
D26*
X55391Y-54278D02*
X56189Y-55077D01*
X58530D01*
X58022Y-42297D02*
Y-39628D01*
X56063Y-38621D02*
X56069Y-38627D01*
X57021D02*
X58022Y-39628D01*
X56069Y-38627D02*
X57021D01*
X58022Y-43400D02*
Y-42297D01*
X54423Y-38603D02*
X56063D01*
X60011Y-23435D02*
X61806D01*
X61872Y-23501D01*
X58547Y-47781D02*
X58564Y-47764D01*
X58547Y-49183D02*
Y-47781D01*
Y-49183D02*
X58564Y-49200D01*
X58530Y-50827D02*
Y-49235D01*
X58552Y-52420D02*
Y-50850D01*
Y-52420D02*
X58597Y-52464D01*
X58530Y-54012D02*
X58532Y-54010D01*
Y-52529D02*
X58597Y-52464D01*
X58532Y-54010D02*
Y-52529D01*
X58530Y-55077D02*
Y-54012D01*
X56438Y-69308D02*
X58530Y-67215D01*
Y-55077D01*
X58564Y-47764D02*
Y-43942D01*
X58022Y-43400D02*
X58564Y-43942D01*
X59856Y-21518D02*
X59874Y-21535D01*
X57891Y-22485D02*
Y-19041D01*
X49226Y-10376D02*
Y-9376D01*
Y-10376D02*
X57891Y-19041D01*
X65438Y-72000D02*
Y-22803D01*
X62394Y-21535D02*
Y-19691D01*
X60011Y-21535D02*
X62394D01*
X59874D02*
X60011D01*
X64144D02*
X64169D01*
X65438Y-22803D01*
X49294Y-69308D02*
X56438D01*
Y-72000D02*
Y-69308D01*
X52452Y-55494D02*
X54534D01*
Y-54278D02*
X55391D01*
X51966Y-38741D02*
X52128D01*
X52266Y-38603D01*
X54423D01*
X49226Y-69376D02*
X49294Y-69308D01*
X54534Y-55827D02*
Y-55494D01*
Y-54954D01*
D27*
X52477Y-41453D02*
X53321Y-42297D01*
X56222D01*
X55500Y-49209D02*
Y-48250D01*
X55986Y-47764D01*
X54959Y-49750D02*
X55500Y-49209D01*
X55986Y-47764D02*
X56764D01*
X51966Y-50171D02*
X55794D01*
X56730Y-49235D01*
X52815Y-49750D02*
X54959D01*
X51966Y-51441D02*
X52086D01*
X52533Y-50994D01*
X57000D01*
X52077Y-52600D02*
X57057D01*
X55953Y-54108D02*
X56730D01*
X51966Y-48901D02*
X52815Y-49750D01*
X54388Y-45668D02*
X55808D01*
Y-43595D02*
Y-43159D01*
X55399Y-42750D02*
X55808Y-43159D01*
X52533Y-42750D02*
X55399D01*
X55808Y-43595D02*
X56063Y-43850D01*
X51966Y-42551D02*
X52138Y-42723D01*
X52506D02*
X52533Y-42750D01*
X52138Y-42723D02*
X52506D01*
X54341Y-43821D02*
X54388Y-43868D01*
X51966Y-43821D02*
X54341D01*
X51966Y-45091D02*
X52543Y-45668D01*
X54388D01*
X52706Y-47101D02*
X54435D01*
X51966Y-46361D02*
X52706Y-47101D01*
X53236Y-48901D02*
X54436D01*
X51966Y-47631D02*
X53236Y-48901D01*
X55345Y-53500D02*
X55953Y-54108D01*
X53827Y-53500D02*
X55345D01*
X53346Y-53981D02*
X53827Y-53500D01*
X51966Y-56521D02*
X54231D01*
X54523Y-56812D01*
X54523D02*
Y-56812D01*
X51966Y-52711D02*
X52077Y-52600D01*
X52210Y-55251D02*
X52452Y-55494D01*
X54523Y-56013D02*
Y-55838D01*
Y-56812D02*
Y-56638D01*
X51966Y-53981D02*
X53346D01*
X51966Y-41281D02*
X52138Y-41453D01*
X52477D01*
X51966Y-55251D02*
X52210D01*
D28*
X54534Y-54954D02*
Y-54278D01*
D29*
X64000Y-5000D02*
D03*
X6000D02*
D03*
%TF.MD5,3669dbf14c494774d75a623a0b4ac4f6*%
M02*
