%TF.GenerationSoftware,Altium Limited,Altium Designer,24.7.2 (38)*%
G04 Layer_Physical_Order=1*
G04 Layer_Color=255*
%FSLAX43Y43*%
%MOMM*%
%TF.SameCoordinates,6EE5CD54-FE70-432D-B01E-CA14D31D91FF*%
%TF.FilePolarity,Positive*%
%TF.FileFunction,Copper,L1,Top,Signal*%
%TF.Part,Single*%
G01*
G75*
%TA.AperFunction,ComponentPad*%
%ADD10C,1.100*%
%ADD11R,1.100X1.100*%
%ADD12O,2.000X4.000*%
%ADD13C,2.400*%
G36*
X69745Y-78745D02*
X151D01*
Y-261D01*
X69745D01*
Y-78745D01*
D02*
G37*
%LPC*%
G36*
X50016Y-1813D02*
X49663Y-1860D01*
X49335Y-1996D01*
X49052Y-2212D01*
X48836Y-2495D01*
X48700Y-2823D01*
X48653Y-3176D01*
X48700Y-3529D01*
X48836Y-3857D01*
X49052Y-4140D01*
X49335Y-4356D01*
X49663Y-4492D01*
X50016Y-4539D01*
X50369Y-4492D01*
X50697Y-4356D01*
X50980Y-4140D01*
X51196Y-3857D01*
X51332Y-3529D01*
X51379Y-3176D01*
X51332Y-2823D01*
X51196Y-2495D01*
X50980Y-2212D01*
X50697Y-1996D01*
X50369Y-1860D01*
X50016Y-1813D01*
D02*
G37*
G36*
X64000Y-2638D02*
X63539Y-2683D01*
X63096Y-2817D01*
X62688Y-3036D01*
X62330Y-3330D01*
X62036Y-3688D01*
X61817Y-4096D01*
X61683Y-4539D01*
X61638Y-5000D01*
X61683Y-5461D01*
X61817Y-5904D01*
X62036Y-6312D01*
X62330Y-6670D01*
X62688Y-6964D01*
X63096Y-7183D01*
X63539Y-7317D01*
X64000Y-7362D01*
X64461Y-7317D01*
X64904Y-7183D01*
X65312Y-6964D01*
X65670Y-6670D01*
X65964Y-6312D01*
X66183Y-5904D01*
X66317Y-5461D01*
X66362Y-5000D01*
X66317Y-4539D01*
X66183Y-4096D01*
X65964Y-3688D01*
X65670Y-3330D01*
X65312Y-3036D01*
X64904Y-2817D01*
X64461Y-2683D01*
X64000Y-2638D01*
D02*
G37*
G36*
X6000D02*
X5539Y-2683D01*
X5096Y-2817D01*
X4688Y-3036D01*
X4330Y-3330D01*
X4036Y-3688D01*
X3817Y-4096D01*
X3683Y-4539D01*
X3638Y-5000D01*
X3683Y-5461D01*
X3817Y-5904D01*
X4036Y-6312D01*
X4330Y-6670D01*
X4688Y-6964D01*
X5096Y-7183D01*
X5539Y-7317D01*
X6000Y-7362D01*
X6461Y-7317D01*
X6904Y-7183D01*
X7312Y-6964D01*
X7670Y-6670D01*
X7964Y-6312D01*
X8183Y-5904D01*
X8317Y-5461D01*
X8362Y-5000D01*
X8317Y-4539D01*
X8183Y-4096D01*
X7964Y-3688D01*
X7670Y-3330D01*
X7312Y-3036D01*
X6904Y-2817D01*
X6461Y-2683D01*
X6000Y-2638D01*
D02*
G37*
G36*
X49226Y-7215D02*
X48926Y-7255D01*
X48646Y-7371D01*
X48405Y-7555D01*
X48221Y-7796D01*
X48105Y-8076D01*
X48065Y-8376D01*
Y-10376D01*
X48105Y-10676D01*
X48221Y-10956D01*
X48405Y-11197D01*
X48646Y-11381D01*
X48926Y-11497D01*
X49226Y-11537D01*
X49526Y-11497D01*
X49806Y-11381D01*
X50047Y-11197D01*
X50231Y-10956D01*
X50347Y-10676D01*
X50387Y-10376D01*
Y-8376D01*
X50347Y-8076D01*
X50231Y-7796D01*
X50047Y-7555D01*
X49806Y-7371D01*
X49526Y-7255D01*
X49226Y-7215D01*
D02*
G37*
G36*
X52667Y-21530D02*
X51265D01*
Y-22932D01*
X51330D01*
X51404Y-23082D01*
X51354Y-23147D01*
X51283Y-23318D01*
X51259Y-23501D01*
X51283Y-23684D01*
X51354Y-23855D01*
X51466Y-24001D01*
X51519Y-24041D01*
Y-24231D01*
X51466Y-24271D01*
X51354Y-24417D01*
X51283Y-24588D01*
X51259Y-24771D01*
X51283Y-24954D01*
X51354Y-25125D01*
X51466Y-25271D01*
X51519Y-25311D01*
Y-25501D01*
X51466Y-25541D01*
X51354Y-25687D01*
X51283Y-25858D01*
X51259Y-26041D01*
X51283Y-26224D01*
X51354Y-26395D01*
X51466Y-26541D01*
X51519Y-26581D01*
Y-26771D01*
X51466Y-26811D01*
X51354Y-26957D01*
X51283Y-27128D01*
X51259Y-27311D01*
X51283Y-27494D01*
X51354Y-27665D01*
X51466Y-27811D01*
X51519Y-27851D01*
Y-28041D01*
X51466Y-28081D01*
X51354Y-28227D01*
X51283Y-28398D01*
X51259Y-28581D01*
X51283Y-28764D01*
X51354Y-28935D01*
X51466Y-29081D01*
X51519Y-29121D01*
Y-29311D01*
X51466Y-29351D01*
X51354Y-29497D01*
X51283Y-29668D01*
X51259Y-29851D01*
X51283Y-30034D01*
X51354Y-30205D01*
X51466Y-30351D01*
X51519Y-30391D01*
Y-30581D01*
X51466Y-30621D01*
X51354Y-30767D01*
X51283Y-30938D01*
X51259Y-31121D01*
X51283Y-31304D01*
X51354Y-31475D01*
X51466Y-31621D01*
X51519Y-31661D01*
Y-31851D01*
X51466Y-31891D01*
X51354Y-32037D01*
X51283Y-32208D01*
X51259Y-32391D01*
X51283Y-32574D01*
X51354Y-32745D01*
X51466Y-32891D01*
X51519Y-32931D01*
Y-33121D01*
X51466Y-33161D01*
X51354Y-33307D01*
X51283Y-33478D01*
X51259Y-33661D01*
X51283Y-33844D01*
X51354Y-34015D01*
X51466Y-34161D01*
X51519Y-34201D01*
Y-34391D01*
X51466Y-34431D01*
X51354Y-34577D01*
X51283Y-34748D01*
X51259Y-34931D01*
X51283Y-35114D01*
X51354Y-35285D01*
X51466Y-35431D01*
X51519Y-35471D01*
Y-35661D01*
X51466Y-35701D01*
X51354Y-35847D01*
X51283Y-36018D01*
X51259Y-36201D01*
X51283Y-36384D01*
X51354Y-36555D01*
X51466Y-36701D01*
X51519Y-36741D01*
Y-36931D01*
X51466Y-36971D01*
X51354Y-37117D01*
X51283Y-37288D01*
X51259Y-37471D01*
X51283Y-37654D01*
X51354Y-37825D01*
X51466Y-37971D01*
X51519Y-38011D01*
Y-38201D01*
X51466Y-38241D01*
X51354Y-38387D01*
X51283Y-38558D01*
X51259Y-38741D01*
X51283Y-38924D01*
X51354Y-39095D01*
X51466Y-39241D01*
X51479Y-39251D01*
Y-39440D01*
X51431Y-39476D01*
X51311Y-39633D01*
X51235Y-39815D01*
X51223Y-39911D01*
X51966D01*
X52709D01*
X52697Y-39815D01*
X52621Y-39633D01*
X52501Y-39476D01*
X52453Y-39440D01*
Y-39251D01*
X52466Y-39241D01*
X52578Y-39095D01*
X52649Y-38924D01*
X52673Y-38741D01*
X52649Y-38558D01*
X52578Y-38387D01*
X52466Y-38241D01*
X52413Y-38201D01*
Y-38011D01*
X52466Y-37971D01*
X52578Y-37825D01*
X52649Y-37654D01*
X52673Y-37471D01*
X52649Y-37288D01*
X52578Y-37117D01*
X52466Y-36971D01*
X52413Y-36931D01*
Y-36741D01*
X52466Y-36701D01*
X52578Y-36555D01*
X52649Y-36384D01*
X52673Y-36201D01*
X52649Y-36018D01*
X52578Y-35847D01*
X52466Y-35701D01*
X52413Y-35661D01*
Y-35471D01*
X52466Y-35431D01*
X52578Y-35285D01*
X52649Y-35114D01*
X52673Y-34931D01*
X52649Y-34748D01*
X52578Y-34577D01*
X52466Y-34431D01*
X52413Y-34391D01*
Y-34201D01*
X52466Y-34161D01*
X52578Y-34015D01*
X52649Y-33844D01*
X52673Y-33661D01*
X52649Y-33478D01*
X52578Y-33307D01*
X52466Y-33161D01*
X52413Y-33121D01*
Y-32931D01*
X52466Y-32891D01*
X52578Y-32745D01*
X52649Y-32574D01*
X52673Y-32391D01*
X52649Y-32208D01*
X52578Y-32037D01*
X52466Y-31891D01*
X52413Y-31851D01*
Y-31661D01*
X52466Y-31621D01*
X52578Y-31475D01*
X52649Y-31304D01*
X52673Y-31121D01*
X52649Y-30938D01*
X52578Y-30767D01*
X52466Y-30621D01*
X52413Y-30581D01*
Y-30391D01*
X52466Y-30351D01*
X52578Y-30205D01*
X52649Y-30034D01*
X52673Y-29851D01*
X52649Y-29668D01*
X52578Y-29497D01*
X52466Y-29351D01*
X52413Y-29311D01*
Y-29121D01*
X52466Y-29081D01*
X52578Y-28935D01*
X52649Y-28764D01*
X52673Y-28581D01*
X52649Y-28398D01*
X52578Y-28227D01*
X52466Y-28081D01*
X52413Y-28041D01*
Y-27851D01*
X52466Y-27811D01*
X52578Y-27665D01*
X52649Y-27494D01*
X52673Y-27311D01*
X52649Y-27128D01*
X52578Y-26957D01*
X52466Y-26811D01*
X52413Y-26771D01*
Y-26581D01*
X52466Y-26541D01*
X52578Y-26395D01*
X52649Y-26224D01*
X52673Y-26041D01*
X52649Y-25858D01*
X52578Y-25687D01*
X52466Y-25541D01*
X52413Y-25501D01*
Y-25311D01*
X52466Y-25271D01*
X52578Y-25125D01*
X52649Y-24954D01*
X52673Y-24771D01*
X52649Y-24588D01*
X52578Y-24417D01*
X52466Y-24271D01*
X52413Y-24231D01*
Y-24041D01*
X52466Y-24001D01*
X52578Y-23855D01*
X52649Y-23684D01*
X52673Y-23501D01*
X52649Y-23318D01*
X52578Y-23147D01*
X52528Y-23082D01*
X52602Y-22932D01*
X52667D01*
Y-21530D01*
D02*
G37*
G36*
X52709Y-40111D02*
X51966D01*
X51223D01*
X51235Y-40207D01*
X51311Y-40389D01*
X51431Y-40546D01*
X51479Y-40582D01*
Y-40771D01*
X51466Y-40781D01*
X51354Y-40927D01*
X51283Y-41098D01*
X51259Y-41281D01*
X51283Y-41464D01*
X51354Y-41635D01*
X51466Y-41781D01*
X51519Y-41821D01*
Y-42011D01*
X51466Y-42051D01*
X51354Y-42197D01*
X51283Y-42368D01*
X51259Y-42551D01*
X51283Y-42734D01*
X51354Y-42905D01*
X51466Y-43051D01*
X51519Y-43091D01*
Y-43281D01*
X51466Y-43321D01*
X51354Y-43467D01*
X51283Y-43638D01*
X51259Y-43821D01*
X51283Y-44004D01*
X51354Y-44175D01*
X51466Y-44321D01*
X51519Y-44361D01*
Y-44551D01*
X51466Y-44591D01*
X51354Y-44737D01*
X51283Y-44908D01*
X51259Y-45091D01*
X51283Y-45274D01*
X51354Y-45445D01*
X51466Y-45591D01*
X51519Y-45631D01*
Y-45821D01*
X51466Y-45861D01*
X51354Y-46007D01*
X51283Y-46178D01*
X51259Y-46361D01*
X51283Y-46544D01*
X51354Y-46715D01*
X51466Y-46861D01*
X51519Y-46901D01*
Y-47091D01*
X51466Y-47131D01*
X51354Y-47277D01*
X51283Y-47448D01*
X51259Y-47631D01*
X51283Y-47814D01*
X51354Y-47985D01*
X51466Y-48131D01*
X51519Y-48171D01*
Y-48361D01*
X51466Y-48401D01*
X51354Y-48547D01*
X51283Y-48718D01*
X51259Y-48901D01*
X51283Y-49084D01*
X51354Y-49255D01*
X51466Y-49401D01*
X51519Y-49441D01*
Y-49631D01*
X51466Y-49671D01*
X51354Y-49817D01*
X51283Y-49988D01*
X51259Y-50171D01*
X51283Y-50354D01*
X51354Y-50525D01*
X51466Y-50671D01*
X51519Y-50711D01*
Y-50901D01*
X51466Y-50941D01*
X51354Y-51087D01*
X51283Y-51258D01*
X51259Y-51441D01*
X51283Y-51624D01*
X51354Y-51795D01*
X51466Y-51941D01*
X51519Y-51981D01*
Y-52171D01*
X51466Y-52211D01*
X51354Y-52357D01*
X51283Y-52528D01*
X51259Y-52711D01*
X51283Y-52894D01*
X51354Y-53065D01*
X51466Y-53211D01*
X51519Y-53251D01*
Y-53441D01*
X51466Y-53481D01*
X51354Y-53627D01*
X51283Y-53798D01*
X51259Y-53981D01*
X51283Y-54164D01*
X51354Y-54335D01*
X51466Y-54481D01*
X51519Y-54521D01*
Y-54711D01*
X51466Y-54751D01*
X51354Y-54897D01*
X51283Y-55068D01*
X51259Y-55251D01*
X51283Y-55434D01*
X51354Y-55605D01*
X51466Y-55751D01*
X51479Y-55761D01*
Y-55950D01*
X51431Y-55986D01*
X51311Y-56143D01*
X51235Y-56325D01*
X51223Y-56421D01*
X51966D01*
X52709D01*
X52697Y-56325D01*
X52621Y-56143D01*
X52501Y-55986D01*
X52453Y-55950D01*
Y-55761D01*
X52466Y-55751D01*
X52578Y-55605D01*
X52649Y-55434D01*
X52673Y-55251D01*
X52649Y-55068D01*
X52578Y-54897D01*
X52466Y-54751D01*
X52413Y-54711D01*
Y-54521D01*
X52466Y-54481D01*
X52578Y-54335D01*
X52649Y-54164D01*
X52673Y-53981D01*
X52649Y-53798D01*
X52578Y-53627D01*
X52466Y-53481D01*
X52413Y-53441D01*
Y-53251D01*
X52466Y-53211D01*
X52578Y-53065D01*
X52649Y-52894D01*
X52673Y-52711D01*
X52649Y-52528D01*
X52578Y-52357D01*
X52466Y-52211D01*
X52413Y-52171D01*
Y-51981D01*
X52466Y-51941D01*
X52578Y-51795D01*
X52649Y-51624D01*
X52673Y-51441D01*
X52649Y-51258D01*
X52578Y-51087D01*
X52466Y-50941D01*
X52413Y-50901D01*
Y-50711D01*
X52466Y-50671D01*
X52578Y-50525D01*
X52649Y-50354D01*
X52673Y-50171D01*
X52649Y-49988D01*
X52578Y-49817D01*
X52466Y-49671D01*
X52413Y-49631D01*
Y-49441D01*
X52466Y-49401D01*
X52578Y-49255D01*
X52649Y-49084D01*
X52673Y-48901D01*
X52649Y-48718D01*
X52578Y-48547D01*
X52466Y-48401D01*
X52413Y-48361D01*
Y-48171D01*
X52466Y-48131D01*
X52578Y-47985D01*
X52649Y-47814D01*
X52673Y-47631D01*
X52649Y-47448D01*
X52578Y-47277D01*
X52466Y-47131D01*
X52413Y-47091D01*
Y-46901D01*
X52466Y-46861D01*
X52578Y-46715D01*
X52649Y-46544D01*
X52673Y-46361D01*
X52649Y-46178D01*
X52578Y-46007D01*
X52466Y-45861D01*
X52413Y-45821D01*
Y-45631D01*
X52466Y-45591D01*
X52578Y-45445D01*
X52649Y-45274D01*
X52673Y-45091D01*
X52649Y-44908D01*
X52578Y-44737D01*
X52466Y-44591D01*
X52413Y-44551D01*
Y-44361D01*
X52466Y-44321D01*
X52578Y-44175D01*
X52649Y-44004D01*
X52673Y-43821D01*
X52649Y-43638D01*
X52578Y-43467D01*
X52466Y-43321D01*
X52413Y-43281D01*
Y-43091D01*
X52466Y-43051D01*
X52578Y-42905D01*
X52649Y-42734D01*
X52673Y-42551D01*
X52649Y-42368D01*
X52578Y-42197D01*
X52466Y-42051D01*
X52413Y-42011D01*
Y-41821D01*
X52466Y-41781D01*
X52578Y-41635D01*
X52649Y-41464D01*
X52673Y-41281D01*
X52649Y-41098D01*
X52578Y-40927D01*
X52466Y-40781D01*
X52453Y-40771D01*
Y-40582D01*
X52501Y-40546D01*
X52621Y-40389D01*
X52697Y-40207D01*
X52709Y-40111D01*
D02*
G37*
G36*
X51866Y-56621D02*
X51223D01*
X51235Y-56717D01*
X51311Y-56899D01*
X51431Y-57056D01*
X51588Y-57176D01*
X51770Y-57252D01*
X51866Y-57264D01*
Y-56621D01*
D02*
G37*
G36*
X52709D02*
X52066D01*
Y-57264D01*
X52162Y-57252D01*
X52344Y-57176D01*
X52501Y-57056D01*
X52621Y-56899D01*
X52697Y-56717D01*
X52709Y-56621D01*
D02*
G37*
G36*
X49226Y-67215D02*
X48926Y-67255D01*
X48646Y-67371D01*
X48405Y-67555D01*
X48221Y-67796D01*
X48105Y-68076D01*
X48065Y-68376D01*
Y-70376D01*
X48105Y-70676D01*
X48221Y-70956D01*
X48405Y-71197D01*
X48646Y-71381D01*
X48926Y-71497D01*
X49226Y-71537D01*
X49526Y-71497D01*
X49806Y-71381D01*
X50047Y-71197D01*
X50231Y-70956D01*
X50347Y-70676D01*
X50387Y-70376D01*
Y-68376D01*
X50347Y-68076D01*
X50231Y-67796D01*
X50047Y-67555D01*
X49806Y-67371D01*
X49526Y-67255D01*
X49226Y-67215D01*
D02*
G37*
G36*
X50016Y-74213D02*
X49663Y-74260D01*
X49335Y-74396D01*
X49052Y-74612D01*
X48836Y-74895D01*
X48700Y-75223D01*
X48653Y-75576D01*
X48700Y-75929D01*
X48836Y-76257D01*
X49052Y-76540D01*
X49335Y-76756D01*
X49663Y-76892D01*
X50016Y-76939D01*
X50369Y-76892D01*
X50697Y-76756D01*
X50980Y-76540D01*
X51196Y-76257D01*
X51332Y-75929D01*
X51379Y-75576D01*
X51332Y-75223D01*
X51196Y-74895D01*
X50980Y-74612D01*
X50697Y-74396D01*
X50369Y-74260D01*
X50016Y-74213D01*
D02*
G37*
%LPD*%
D10*
X51966Y-56521D02*
D03*
Y-55251D02*
D03*
Y-53981D02*
D03*
Y-52711D02*
D03*
Y-51441D02*
D03*
Y-50171D02*
D03*
Y-48901D02*
D03*
Y-47631D02*
D03*
Y-46361D02*
D03*
Y-45091D02*
D03*
Y-43821D02*
D03*
Y-42551D02*
D03*
Y-41281D02*
D03*
Y-40011D02*
D03*
Y-38741D02*
D03*
Y-37471D02*
D03*
Y-36201D02*
D03*
Y-34931D02*
D03*
Y-33661D02*
D03*
Y-32391D02*
D03*
Y-31121D02*
D03*
Y-29851D02*
D03*
Y-28581D02*
D03*
Y-27311D02*
D03*
Y-26041D02*
D03*
Y-24771D02*
D03*
Y-23501D02*
D03*
D11*
Y-22231D02*
D03*
D12*
X49226Y-9376D02*
D03*
Y-69376D02*
D03*
D13*
X50016Y-75576D02*
D03*
Y-3176D02*
D03*
%TF.MD5,b9dfe7658dbdd410f012139721c4de37*%
M02*
