%TF.GenerationSoftware,Altium Limited,Altium Designer,24.7.2 (38)*%
G04 Layer_Color=2752767*
%FSLAX43Y43*%
%MOMM*%
%TF.SameCoordinates,D15D1D2A-FCB6-4C81-826D-5CEFA5F89A76*%
%TF.FilePolarity,Positive*%
%TF.FileFunction,Drawing*%
%TF.Part,Single*%
G01*
G75*
%TA.AperFunction,NonConductor*%
%ADD19C,0.169*%
%ADD21C,0.127*%
D19*
X19945Y15054D02*
G03*
X19945Y15054I-508J0D01*
G01*
Y2354D02*
G03*
X19945Y2354I-508J0D01*
G01*
X16643Y2227D02*
G03*
X16643Y2227I-508J0D01*
G01*
Y14927D02*
G03*
X16643Y14927I-508J0D01*
G01*
D21*
X25742Y3992D02*
Y5008D01*
X26758D01*
Y3992D01*
X25742D01*
Y8992D02*
Y10008D01*
X26758D01*
Y8992D01*
X25742D01*
X30742Y3992D02*
Y5008D01*
X31758D01*
Y3992D01*
X30742D01*
Y8992D02*
Y10008D01*
X31758D01*
Y8992D01*
X30742D01*
Y13992D02*
Y15008D01*
X31758D01*
Y13992D01*
X30742D01*
X25742D02*
Y15008D01*
X26758D01*
Y13992D01*
X25742D01*
X8937Y12950D02*
Y13966D01*
X9953D01*
Y12950D01*
X8937D01*
Y7950D02*
Y8966D01*
X9953D01*
Y7950D01*
X8937D01*
X3937Y12950D02*
Y13966D01*
X4953D01*
Y12950D01*
X3937D01*
Y7950D02*
Y8966D01*
X4953D01*
Y7950D01*
X3937D01*
Y2950D02*
Y3966D01*
X4953D01*
Y2950D01*
X3937D01*
X8937D02*
Y3966D01*
X9953D01*
Y2950D01*
X8937D01*
%TF.MD5,69e312048588ee7e8b725fc92015d2db*%
M02*
