%TF.GenerationSoftware,Altium Limited,Altium Designer,24.7.2 (38)*%
G04 Layer_Color=65535*
%FSLAX43Y43*%
%MOMM*%
%TF.SameCoordinates,D15D1D2A-FCB6-4C81-826D-5CEFA5F89A76*%
%TF.FilePolarity,Positive*%
%TF.FileFunction,Legend,Top*%
%TF.Part,Single*%
G01*
G75*
%TA.AperFunction,NonConductor*%
%ADD14C,0.254*%
%ADD15C,0.200*%
D14*
X19437Y12204D02*
Y13784D01*
Y3624D02*
Y5204D01*
X18187D02*
X20687D01*
Y12204D01*
X18187D02*
X20687D01*
X18187Y5204D02*
Y12204D01*
X16135Y3497D02*
Y5077D01*
Y12077D02*
Y13657D01*
X14885Y12077D02*
X17385D01*
X14885Y5077D02*
Y12077D01*
Y5077D02*
X17385D01*
Y12077D01*
X16897Y6227D02*
X15373D01*
Y6988D01*
X15627Y7242D01*
X16135D01*
X16389Y6988D01*
Y6227D01*
Y6735D02*
X16897Y7242D01*
Y8766D02*
Y7750D01*
X15881Y8766D01*
X15627D01*
X15373Y8512D01*
Y8004D01*
X15627Y7750D01*
X20199Y6481D02*
X18675D01*
Y7242D01*
X18929Y7496D01*
X19437D01*
X19691Y7242D01*
Y6481D01*
Y6988D02*
X20199Y7496D01*
Y8004D02*
Y8512D01*
Y8258D01*
X18675D01*
X18929Y8004D01*
X22238Y4965D02*
Y4457D01*
Y4711D01*
X23508D01*
X23762Y4457D01*
Y4204D01*
X23508Y3950D01*
X23762Y6489D02*
Y5473D01*
X22746Y6489D01*
X22492D01*
X22238Y6235D01*
Y5727D01*
X22492Y5473D01*
X12962Y5565D02*
Y6073D01*
Y5819D01*
X11692D01*
X11438Y6073D01*
Y6326D01*
X11692Y6580D01*
X11438Y5057D02*
Y4549D01*
Y4803D01*
X12962D01*
X12708Y5057D01*
D15*
X32700Y600D02*
Y1000D01*
Y600D02*
X33950D01*
Y1000D01*
X35250D01*
X25050Y600D02*
Y1000D01*
X23450Y600D02*
X25050D01*
X23450D02*
Y1000D01*
X22850D02*
X23450D01*
X22850Y600D02*
Y1000D01*
X21650Y600D02*
X22850D01*
X21650D02*
Y1000D01*
X21250D02*
X21650D01*
X35250D02*
Y17000D01*
X21250D02*
X35250D01*
X21250Y1000D02*
Y17000D01*
X30550Y600D02*
Y1000D01*
X28950Y600D02*
X30550D01*
X28950D02*
Y1000D01*
X30550D02*
X32700D01*
X25050D02*
X28950D01*
X2995Y16958D02*
Y17358D01*
X1745D02*
X2995D01*
X1745Y16958D02*
Y17358D01*
X445Y16958D02*
X1745D01*
X10645D02*
Y17358D01*
X12245D01*
Y16958D02*
Y17358D01*
Y16958D02*
X12845D01*
Y17358D01*
X14045D01*
Y16958D02*
Y17358D01*
Y16958D02*
X14445D01*
X445Y958D02*
Y16958D01*
Y958D02*
X14445D01*
Y16958D01*
X5145D02*
Y17358D01*
X6745D01*
Y16958D02*
Y17358D01*
X2995Y16958D02*
X5145D01*
X6745D02*
X10645D01*
%TF.MD5,07d1444e0b673ebbc8ff712fd4ac15e0*%
M02*
