%TF.GenerationSoftware,Altium Limited,Altium Designer,24.7.2 (38)*%
G04 Layer_Physical_Order=1*
G04 Layer_Color=255*
%FSLAX43Y43*%
%MOMM*%
%TF.SameCoordinates,D15D1D2A-FCB6-4C81-826D-5CEFA5F89A76*%
%TF.FilePolarity,Positive*%
%TF.FileFunction,Copper,L1,Top,Signal*%
%TF.Part,Single*%
G01*
G75*
%TA.AperFunction,Conductor*%
%ADD10C,0.500*%
%TA.AperFunction,ComponentPad*%
%ADD11C,1.600*%
G04:AMPARAMS|DCode=12|XSize=1.9mm|YSize=1.9mm|CornerRadius=0.475mm|HoleSize=0mm|Usage=FLASHONLY|Rotation=90.000|XOffset=0mm|YOffset=0mm|HoleType=Round|Shape=RoundedRectangle|*
%AMROUNDEDRECTD12*
21,1,1.900,0.950,0,0,90.0*
21,1,0.950,1.900,0,0,90.0*
1,1,0.950,0.475,0.475*
1,1,0.950,0.475,-0.475*
1,1,0.950,-0.475,-0.475*
1,1,0.950,-0.475,0.475*
%
%ADD12ROUNDEDRECTD12*%
%ADD13C,1.900*%
G36*
X35745Y255D02*
X255D01*
Y17779D01*
X35745D01*
Y255D01*
D02*
G37*
%LPC*%
G36*
X19437Y16013D02*
X19189Y15981D01*
X18957Y15885D01*
X18759Y15732D01*
X18606Y15534D01*
X18510Y15302D01*
X18478Y15054D01*
X18510Y14806D01*
X18606Y14574D01*
X18759Y14376D01*
X18957Y14223D01*
X19189Y14127D01*
X19437Y14095D01*
X19685Y14127D01*
X19917Y14223D01*
X20115Y14376D01*
X20268Y14574D01*
X20363Y14806D01*
X20396Y15054D01*
X20363Y15302D01*
X20268Y15534D01*
X20115Y15732D01*
X19917Y15885D01*
X19685Y15981D01*
X19437Y16013D01*
D02*
G37*
G36*
X23054Y17409D02*
X18208D01*
X18051Y17378D01*
X17919Y17289D01*
X16454Y15824D01*
X16383Y15854D01*
X16135Y15886D01*
X15887Y15854D01*
X15655Y15758D01*
X15457Y15605D01*
X15304Y15407D01*
X15208Y15175D01*
X15176Y14927D01*
X15208Y14679D01*
X15238Y14608D01*
X14497Y13867D01*
X10558D01*
Y13933D01*
X10510Y14177D01*
X10371Y14384D01*
X10164Y14523D01*
X9920Y14571D01*
X8970D01*
X8726Y14523D01*
X8519Y14384D01*
X8380Y14177D01*
X8332Y13933D01*
Y13867D01*
X5558D01*
Y13933D01*
X5510Y14177D01*
X5371Y14384D01*
X5164Y14523D01*
X4920Y14571D01*
X3970D01*
X3726Y14523D01*
X3519Y14384D01*
X3380Y14177D01*
X3332Y13933D01*
Y12983D01*
X3380Y12739D01*
X3519Y12532D01*
X3726Y12393D01*
X3970Y12345D01*
X4920D01*
X5164Y12393D01*
X5371Y12532D01*
X5510Y12739D01*
X5558Y12983D01*
Y13049D01*
X8332D01*
Y12983D01*
X8380Y12739D01*
X8519Y12532D01*
X8726Y12393D01*
X8970Y12345D01*
X9920D01*
X10164Y12393D01*
X10371Y12532D01*
X10510Y12739D01*
X10558Y12983D01*
Y13049D01*
X14666D01*
X14822Y13080D01*
X14955Y13169D01*
X15816Y14030D01*
X15887Y14000D01*
X16135Y13968D01*
X16383Y14000D01*
X16615Y14096D01*
X16813Y14249D01*
X16966Y14447D01*
X17061Y14679D01*
X17094Y14927D01*
X17061Y15175D01*
X17032Y15246D01*
X18377Y16591D01*
X22885D01*
X25013Y14463D01*
X25145Y14374D01*
X25156Y14372D01*
X25177Y14213D01*
X25288Y13945D01*
X25465Y13715D01*
X25695Y13538D01*
X25963Y13427D01*
X26250Y13389D01*
X26537Y13427D01*
X26805Y13538D01*
X27035Y13715D01*
X27097Y13795D01*
X30403D01*
X30465Y13715D01*
X30695Y13538D01*
X30963Y13427D01*
X31250Y13389D01*
X31537Y13427D01*
X31805Y13538D01*
X32035Y13715D01*
X32212Y13945D01*
X32323Y14213D01*
X32361Y14500D01*
X32323Y14787D01*
X32212Y15055D01*
X32035Y15285D01*
X31805Y15462D01*
X31537Y15573D01*
X31250Y15611D01*
X30963Y15573D01*
X30695Y15462D01*
X30465Y15285D01*
X30288Y15055D01*
X30177Y14787D01*
X30154Y14613D01*
X27346D01*
X27323Y14787D01*
X27212Y15055D01*
X27035Y15285D01*
X26805Y15462D01*
X26537Y15573D01*
X26250Y15611D01*
X25963Y15573D01*
X25695Y15462D01*
X25465Y15285D01*
X25354Y15278D01*
X23343Y17289D01*
X23210Y17378D01*
X23054Y17409D01*
D02*
G37*
G36*
X26250Y10611D02*
X25963Y10573D01*
X25695Y10462D01*
X25465Y10285D01*
X25288Y10055D01*
X25228Y9909D01*
X10907D01*
X10750Y9878D01*
X10618Y9789D01*
X10141Y9312D01*
X10000Y9420D01*
X9732Y9531D01*
X9445Y9569D01*
X9158Y9531D01*
X8890Y9420D01*
X8660Y9243D01*
X8483Y9013D01*
X8423Y8867D01*
X5467D01*
X5407Y9013D01*
X5230Y9243D01*
X5000Y9420D01*
X4732Y9531D01*
X4445Y9569D01*
X4157Y9531D01*
X3890Y9420D01*
X3660Y9243D01*
X3483Y9013D01*
X3372Y8745D01*
X3334Y8458D01*
X3372Y8171D01*
X3483Y7903D01*
X3660Y7673D01*
X3890Y7496D01*
X4157Y7385D01*
X4445Y7348D01*
X4732Y7385D01*
X5000Y7496D01*
X5230Y7673D01*
X5407Y7903D01*
X5467Y8049D01*
X8423D01*
X8483Y7903D01*
X8660Y7673D01*
X8890Y7496D01*
X9158Y7385D01*
X9445Y7348D01*
X9732Y7385D01*
X10000Y7496D01*
X10230Y7673D01*
X10407Y7903D01*
X10518Y8171D01*
X10555Y8458D01*
X10542Y8557D01*
X11076Y9091D01*
X25228D01*
X25288Y8945D01*
X25465Y8715D01*
X25695Y8538D01*
X25963Y8427D01*
X26250Y8389D01*
X26537Y8427D01*
X26805Y8538D01*
X27035Y8715D01*
X27212Y8945D01*
X27323Y9213D01*
X27361Y9500D01*
X27323Y9787D01*
X27212Y10055D01*
X27035Y10285D01*
X26805Y10462D01*
X26537Y10573D01*
X26250Y10611D01*
D02*
G37*
G36*
X31250D02*
X30963Y10573D01*
X30695Y10462D01*
X30465Y10285D01*
X30288Y10055D01*
X30177Y9787D01*
X30139Y9500D01*
X30177Y9213D01*
X30288Y8945D01*
X30465Y8715D01*
X30695Y8538D01*
X30963Y8427D01*
X31250Y8389D01*
X31537Y8427D01*
X31805Y8538D01*
X32035Y8715D01*
X32212Y8945D01*
X32323Y9213D01*
X32361Y9500D01*
X32323Y9787D01*
X32212Y10055D01*
X32035Y10285D01*
X31805Y10462D01*
X31537Y10573D01*
X31250Y10611D01*
D02*
G37*
G36*
X9545Y4605D02*
Y3558D01*
X10592D01*
X10565Y3758D01*
X10449Y4038D01*
X10265Y4278D01*
X10025Y4463D01*
X9745Y4578D01*
X9545Y4605D01*
D02*
G37*
G36*
X4545D02*
Y3558D01*
X5592D01*
X5565Y3758D01*
X5449Y4038D01*
X5265Y4278D01*
X5025Y4463D01*
X4745Y4578D01*
X4545Y4605D01*
D02*
G37*
G36*
X4345D02*
X4145Y4578D01*
X3865Y4463D01*
X3625Y4278D01*
X3440Y4038D01*
X3325Y3758D01*
X3298Y3558D01*
X4345D01*
Y4605D01*
D02*
G37*
G36*
X9345D02*
X9145Y4578D01*
X8865Y4463D01*
X8625Y4278D01*
X8440Y4038D01*
X8325Y3758D01*
X8298Y3558D01*
X9345D01*
Y4605D01*
D02*
G37*
G36*
X31725Y5613D02*
X30775D01*
X30531Y5565D01*
X30324Y5426D01*
X30185Y5219D01*
X30137Y4975D01*
Y4025D01*
X30185Y3781D01*
X30324Y3574D01*
X30531Y3435D01*
X30775Y3387D01*
X31725D01*
X31969Y3435D01*
X32176Y3574D01*
X32315Y3781D01*
X32363Y4025D01*
Y4975D01*
X32315Y5219D01*
X32176Y5426D01*
X31969Y5565D01*
X31725Y5613D01*
D02*
G37*
G36*
X26725D02*
X25775D01*
X25531Y5565D01*
X25324Y5426D01*
X25185Y5219D01*
X25137Y4975D01*
Y4025D01*
X25185Y3781D01*
X25324Y3574D01*
X25531Y3435D01*
X25775Y3387D01*
X26725D01*
X26969Y3435D01*
X27176Y3574D01*
X27315Y3781D01*
X27363Y4025D01*
Y4975D01*
X27315Y5219D01*
X27176Y5426D01*
X26969Y5565D01*
X26725Y5613D01*
D02*
G37*
G36*
X19537Y3349D02*
Y2454D01*
X20432D01*
X20411Y2615D01*
X20310Y2858D01*
X20150Y3067D01*
X19941Y3227D01*
X19698Y3328D01*
X19537Y3349D01*
D02*
G37*
G36*
X19337Y3349D02*
X19176Y3328D01*
X18933Y3227D01*
X18724Y3067D01*
X18563Y2858D01*
X18463Y2615D01*
X18441Y2454D01*
X19337D01*
Y3349D01*
D02*
G37*
G36*
X16235Y3222D02*
Y2327D01*
X17130D01*
X17109Y2488D01*
X17008Y2731D01*
X16848Y2940D01*
X16639Y3101D01*
X16396Y3201D01*
X16235Y3222D01*
D02*
G37*
G36*
X16035D02*
X15874Y3201D01*
X15631Y3101D01*
X15422Y2940D01*
X15261Y2731D01*
X15161Y2488D01*
X15139Y2327D01*
X16035D01*
Y3222D01*
D02*
G37*
G36*
X10592Y3358D02*
X9545D01*
Y2311D01*
X9745Y2338D01*
X10025Y2454D01*
X10265Y2638D01*
X10449Y2878D01*
X10565Y3158D01*
X10592Y3358D01*
D02*
G37*
G36*
X5592D02*
X4545D01*
Y2311D01*
X4745Y2338D01*
X5025Y2454D01*
X5265Y2638D01*
X5449Y2878D01*
X5565Y3158D01*
X5592Y3358D01*
D02*
G37*
G36*
X9345D02*
X8298D01*
X8325Y3158D01*
X8440Y2878D01*
X8625Y2638D01*
X8865Y2454D01*
X9145Y2338D01*
X9345Y2311D01*
Y3358D01*
D02*
G37*
G36*
X4345D02*
X3298D01*
X3325Y3158D01*
X3440Y2878D01*
X3625Y2638D01*
X3865Y2454D01*
X4145Y2338D01*
X4345Y2311D01*
Y3358D01*
D02*
G37*
G36*
X20432Y2254D02*
X19537D01*
Y1359D01*
X19698Y1380D01*
X19941Y1481D01*
X20150Y1641D01*
X20310Y1850D01*
X20411Y2093D01*
X20432Y2254D01*
D02*
G37*
G36*
X19337D02*
X18441D01*
X18463Y2093D01*
X18563Y1850D01*
X18724Y1641D01*
X18933Y1481D01*
X19176Y1380D01*
X19337Y1359D01*
Y2254D01*
D02*
G37*
G36*
X17130Y2127D02*
X16235D01*
Y1232D01*
X16396Y1253D01*
X16639Y1354D01*
X16848Y1514D01*
X17008Y1723D01*
X17109Y1966D01*
X17130Y2127D01*
D02*
G37*
G36*
X16035D02*
X15139D01*
X15161Y1966D01*
X15261Y1723D01*
X15422Y1514D01*
X15631Y1354D01*
X15874Y1253D01*
X16035Y1232D01*
Y2127D01*
D02*
G37*
%LPD*%
D10*
X23054Y17000D02*
X25302Y14752D01*
X16135Y14927D02*
X18208Y17000D01*
X23054D01*
X14666Y13458D02*
X16135Y14927D01*
X26202Y14752D02*
X26454Y14500D01*
X25302Y14752D02*
X26202D01*
X10907Y9500D02*
X26454D01*
X10133Y8726D02*
X10907Y9500D01*
X31407Y9157D02*
X31454Y9204D01*
X9513Y8726D02*
X10133D01*
X9245Y8458D02*
X9513Y8726D01*
X4245Y8458D02*
X9245D01*
X26454Y14204D02*
X31454D01*
X9245Y13458D02*
X14666D01*
X4245D02*
X9245D01*
D11*
X19437Y15054D02*
D03*
Y2354D02*
D03*
X16135Y2227D02*
D03*
Y14927D02*
D03*
D12*
X26250Y4500D02*
D03*
X31250D02*
D03*
X9445Y13458D02*
D03*
X4445D02*
D03*
D13*
X26250Y9500D02*
D03*
X31250D02*
D03*
Y14500D02*
D03*
X26250D02*
D03*
X9445Y8458D02*
D03*
X4445D02*
D03*
Y3458D02*
D03*
X9445D02*
D03*
%TF.MD5,ea4240742afa7c457bb4a174fdae5185*%
M02*
