%TF.GenerationSoftware,Altium Limited,Altium Designer,24.7.2 (38)*%
G04 Layer_Color=128*
%FSLAX43Y43*%
%MOMM*%
%TF.SameCoordinates,D15D1D2A-FCB6-4C81-826D-5CEFA5F89A76*%
%TF.FilePolarity,Positive*%
%TF.FileFunction,Drillmap*%
%TF.Part,Single*%
G01*
G75*
%TA.AperFunction,NonConductor*%
%ADD21C,0.127*%
D21*
X19037Y15054D02*
X19837D01*
X19437Y14654D02*
Y15454D01*
X19037Y2354D02*
X19837D01*
X19437Y1954D02*
Y2754D01*
X25600Y4500D02*
X26900D01*
X26250Y3850D02*
Y5150D01*
X25600Y9500D02*
X26900D01*
X26250Y8850D02*
Y10150D01*
X30600Y4500D02*
X31900D01*
X31250Y3850D02*
Y5150D01*
X30600Y9500D02*
X31900D01*
X31250Y8850D02*
Y10150D01*
X30600Y14500D02*
X31900D01*
X31250Y13850D02*
Y15150D01*
X25600Y14500D02*
X26900D01*
X26250Y13850D02*
Y15150D01*
X8795Y13458D02*
X10095D01*
X9445Y12808D02*
Y14108D01*
X8795Y8458D02*
X10095D01*
X9445Y7808D02*
Y9108D01*
X3795Y13458D02*
X5095D01*
X4445Y12808D02*
Y14108D01*
X3795Y8458D02*
X5095D01*
X4445Y7808D02*
Y9108D01*
X3795Y3458D02*
X5095D01*
X4445Y2808D02*
Y4108D01*
X8795Y3458D02*
X10095D01*
X9445Y2808D02*
Y4108D01*
X15735Y2227D02*
X16535D01*
X16135Y1827D02*
Y2627D01*
X15735Y14927D02*
X16535D01*
X16135Y14527D02*
Y15327D01*
%TF.MD5,948d3e47714048ae34a483e0209cf65c*%
M02*
